SplineFontDB: 3.0
FontName: DraftingMono
FullName: Drafting Mono
FamilyName: Drafting Mono
Weight: Thin
Copyright: Copyright (c) 2020, Owen Earl,,,
UComments: "2020-4-23: Created with FontForge (http://fontforge.org)"
Version: 001.000
ItalicAngle: 0
UnderlinePosition: -200
UnderlineWidth: 100
Ascent: 1600
Descent: 400
InvalidEm: 0
LayerCount: 2
Layer: 0 0 "Back" 1
Layer: 1 0 "Fore" 0
XUID: [1021 573 -282620711 7962162]
StyleMap: 0x0000
FSType: 0
OS2Version: 0
OS2_WeightWidthSlopeOnly: 0
OS2_UseTypoMetrics: 1
CreationTime: 1587664909
ModificationTime: 1647275600
PfmFamily: 17
TTFWeight: 100
TTFWidth: 5
LineGap: 180
VLineGap: 0
OS2TypoAscent: 1600
OS2TypoAOffset: 0
OS2TypoDescent: -400
OS2TypoDOffset: 0
OS2TypoLinegap: 180
OS2WinAscent: 1835
OS2WinAOffset: 0
OS2WinDescent: 625
OS2WinDOffset: 0
HheadAscent: 1835
HheadAOffset: 0
HheadDescent: -625
HheadDOffset: 0
OS2Vendor: 'it* '
Lookup: 1 0 0 "'ss02' Style Set 2 lookup 6" { "'ss02' Style Set 2 lookup 6-1"  } ['ss02' ('DFLT' <'dflt' > 'grek' <'dflt' > 'latn' <'dflt' > ) ]
Lookup: 1 0 0 "'smcp' Lowercase to Small Capitals in Latin lookup 0" { "'smcp' Lowercase to Small Capitals in Latin lookup 0 subtable"  } ['smcp' ('latn' <'dflt' > ) ]
Lookup: 1 0 0 "'c2sc' Capitals to Small Capitals in Latin lookup 0" { "'c2sc' Capitals to Small Capitals in Latin lookup 0 subtable"  } ['c2sc' ('latn' <'dflt' > ) ]
Lookup: 1 0 0 "'ss01' Style Set 1 in Latin lookup 0" { "'ss01' Style Set 1 in Latin lookup 0-1"  } ['ss01' ('DFLT' <'dflt' > 'latn' <'dflt' > ) ]
Lookup: 6 0 0 "'calt' Contextual Alternates in Latin lookup 1" { "'calt' Contextual Alternates in Latin lookup 1-1"  } ['calt' ('DFLT' <'dflt' > 'latn' <'dflt' > ) ]
MarkAttachClasses: 1
DEI: 91125
ChainSub2: class "'calt' Contextual Alternates in Latin lookup 1-1" 4 4 4 2
  Class: 25 H J K M N T U V W X Y d f
  Class: 1 b
  Class: 1 h
  BClass: 25 H J K M N T U V W X Y d f
  BClass: 1 b
  BClass: 1 h
  FClass: 25 H J K M N T U V W X Y d f
  FClass: 1 b
  FClass: 1 h
 1 1 0

StartChar: A
Encoding: 65 65 0
Width: 1200
Flags: HMW
AnchorPoint: "Anchor-0" 599 1300 basechar 0
AnchorPoint: "Anchor-2" 599 0 basechar 0
AnchorPoint: "Anchor-3" 1049 -20 basechar 0
LayerCount: 2
Back
SplineSet
329 130 m 1
 479 130 l 1
 479 0 l 1
 30 0 l 1
 30 130 l 1
 177 130 l 1
 510 1320 l 1
 690 1320 l 1
 1023 130 l 1
 1170 130 l 1
 1170 0 l 1
 721 0 l 1
 721 130 l 1
 871 130 l 1
 580 1250 l 1
 620 1250 l 1
 329 130 l 1
349 500 m 1
 852 500 l 1
 852 370 l 1
 349 370 l 1
 349 500 l 1
EndSplineSet
Fore
SplineSet
231 1300 m 1
 570 1300 l 1
 570 1280 l 1
 231 1270 l 1
 231 1300 l 1
123 -20 m 1
 87 -20 l 1
 570 1300 l 1
 690 1300 l 1
 1113 -20 l 1
 1077 -20 l 1
 665 1270 l 1
 595 1270 l 1
 123 -20 l 1
289 500 m 1
 942 500 l 5
 942 470 l 5
 289 470 l 1
 289 500 l 1
EndSplineSet
Substitution2: "'c2sc' Capitals to Small Capitals in Latin lookup 0 subtable" a.sc
EndChar

StartChar: B
Encoding: 66 66 1
Width: 1200
Flags: HMW
AnchorPoint: "Anchor-2" 586 0 basechar 0
AnchorPoint: "Anchor-0" 514 1300 basechar 0
LayerCount: 2
Fore
SplineSet
284 1270 m 1
 80 1270 l 1
 80 1300 l 1
 572 1300 l 2
 878 1300 1031 1196 1031 990 c 0
 1031 754 829 675 622 675 c 5
 642 685 l 5
 948 685 1101 586 1101 350 c 0
 1101 134 929 0 642 0 c 2
 80 0 l 1
 80 30 l 1
 284 30 l 1
 284 1270 l 1
319 30 m 1
 642 30 l 2
 910 30 1066 147 1066 350 c 0
 1066 563 930 660 642 660 c 2
 319 660 l 1
 319 30 l 1
572 690 m 2
 820 690 996 776 996 990 c 0
 996 1182 857 1270 572 1270 c 2
 319 1270 l 1
 319 690 l 1
 572 690 l 2
EndSplineSet
Substitution2: "'c2sc' Capitals to Small Capitals in Latin lookup 0 subtable" b.sc
EndChar

StartChar: C
Encoding: 67 67 2
Width: 1200
Flags: HMW
AnchorPoint: "Anchor-3" 606 0 basechar 0
AnchorPoint: "Anchor-2" 607 0 basechar 0
AnchorPoint: "Anchor-0" 646 1300 basechar 0
LayerCount: 2
Fore
SplineSet
1046 360 m 1
 1078 350 l 1
 988 124 825 -20 599 -20 c 0
 303 -20 120 214 120 650 c 0
 120 1076 322 1320 599 1320 c 0
 856 1320 1004 1086 1034 880 c 1
 1024 880 l 1
 1032 1300 l 1
 1057 1300 l 1
 1057 870 l 1
 1008 870 l 1
 966 1093 827 1290 599 1290 c 0
 341 1290 155 1063 155 650 c 0
 155 227 331 10 599 10 c 0
 796 10 956 136 1046 360 c 1
EndSplineSet
Substitution2: "'c2sc' Capitals to Small Capitals in Latin lookup 0 subtable" c.sc
EndChar

StartChar: D
Encoding: 68 68 3
Width: 1200
Flags: HMW
AnchorPoint: "Anchor-2" 513 0 basechar 0
AnchorPoint: "Anchor-0" 514 1300 basechar 0
LayerCount: 2
Fore
SplineSet
40 0 m 1
 40 30 l 1
 210 30 l 1
 210 1270 l 1
 40 1270 l 1
 40 1300 l 1
 502 1300 l 6
 928 1300 1101 1026 1101 650 c 4
 1101 284 909 -4.98431247253e-14 502 0 c 6
 40 0 l 1
245 30 m 1
 502 30 l 6
 905 30 1066 317 1066 650 c 0
 1066 993 925 1270 502 1270 c 6
 245 1270 l 1
 245 30 l 1
EndSplineSet
Substitution2: "'c2sc' Capitals to Small Capitals in Latin lookup 0 subtable" d.sc
EndChar

StartChar: E
Encoding: 69 69 4
Width: 1200
Flags: HMW
AnchorPoint: "Anchor-3" 956 0 basechar 0
AnchorPoint: "Anchor-2" 546 0 basechar 0
AnchorPoint: "Anchor-0" 574 1300 basechar 0
LayerCount: 2
Fore
SplineSet
781 690 m 1
 781 655 l 1
 309 660 l 5
 309 30 l 5
 1025 30 l 1
 1041 450 l 1
 1060 450 l 1
 1060 0 l 1
 70 0 l 1
 70 30 l 1
 274 30 l 5
 274 1270 l 5
 70 1270 l 1
 70 1300 l 1
 1020 1300 l 1
 1060 900 l 1
 1041 900 l 1
 986 1270 l 1
 309 1270 l 5
 309 685 l 5
 781 690 l 1
EndSplineSet
Substitution2: "'c2sc' Capitals to Small Capitals in Latin lookup 0 subtable" e.sc
EndChar

StartChar: F
Encoding: 70 70 5
Width: 1200
Flags: HMW
AnchorPoint: "Anchor-2" 376 0 basechar 0
AnchorPoint: "Anchor-0" 604 1300 basechar 0
LayerCount: 2
Fore
SplineSet
811 700 m 1
 811 665 l 1
 329 675 l 1
 329 30 l 1
 699 30 l 1
 699 0 l 1
 100 0 l 1
 100 30 l 1
 294 30 l 1
 294 1270 l 1
 100 1270 l 1
 100 1300 l 1
 1050 1300 l 1
 1090 860 l 1
 1071 860 l 5
 1022 1270 l 1
 329 1270 l 1
 329 700 l 1
 811 700 l 1
EndSplineSet
Substitution2: "'c2sc' Capitals to Small Capitals in Latin lookup 0 subtable" f.sc
EndChar

StartChar: G
Encoding: 71 71 6
Width: 1200
Flags: HMW
AnchorPoint: "Anchor-2" 637 0 basechar 0
AnchorPoint: "Anchor-0" 686 1300 basechar 0
LayerCount: 2
Fore
SplineSet
998 590 m 1
 1023 590 l 5
 1023 304 884 -20 579 -20 c 4
 283 -20 100 214 100 650 c 0
 100 1076 302 1320 579 1320 c 0
 836 1320 984 1086 1014 880 c 1
 1004 880 l 1
 1012 1300 l 1
 1037 1300 l 1
 1037 870 l 1
 988 870 l 1
 948 1093 807 1290 579 1290 c 0
 321 1290 135 1063 135 650 c 0
 135 227 311 10 579 10 c 0
 847 10 998 306 998 590 c 1
597 620 m 1
 1037 620 l 1
 1037 0 l 1
 1017 0 l 1
 998 590 l 1
 597 590 l 1
 597 620 l 1
EndSplineSet
Substitution2: "'c2sc' Capitals to Small Capitals in Latin lookup 0 subtable" g.sc
EndChar

StartChar: H
Encoding: 72 72 7
Width: 1200
Flags: HMW
AnchorPoint: "Anchor-2" 596 0 basechar 0
AnchorPoint: "Anchor-0" 596 1300 basechar 0
LayerCount: 2
Fore
SplineSet
926 660 m 1
 274 660 l 1
 274 30 l 1
 508 30 l 1
 508 0 l 1
 40 0 l 1
 40 30 l 1
 239 30 l 5
 239 1270 l 5
 40 1270 l 1
 40 1300 l 1
 508 1300 l 1
 508 1270 l 1
 274 1270 l 1
 274 690 l 1
 926 690 l 1
 926 1270 l 1
 692 1270 l 1
 692 1300 l 1
 1160 1300 l 1
 1160 1270 l 1
 961 1270 l 1
 961 30 l 1
 1160 30 l 1
 1160 0 l 1
 692 0 l 1
 692 30 l 1
 926 30 l 1
 926 660 l 1
EndSplineSet
Substitution2: "'c2sc' Capitals to Small Capitals in Latin lookup 0 subtable" h.sc
EndChar

StartChar: I
Encoding: 73 73 8
Width: 1200
Flags: HMW
AnchorPoint: "Anchor-3" 602 0 basechar 0
AnchorPoint: "Anchor-2" 602 0 basechar 0
AnchorPoint: "Anchor-0" 586 1300 basechar 0
LayerCount: 2
Fore
SplineSet
150 0 m 1
 150 30 l 1
 581 30 l 5
 581 1270 l 5
 160 1270 l 1
 160 1300 l 1
 1040 1300 l 1
 1040 1270 l 1
 618 1270 l 5
 618 30 l 5
 1050 30 l 1
 1050 0 l 1
 150 0 l 1
EndSplineSet
Substitution2: "'c2sc' Capitals to Small Capitals in Latin lookup 0 subtable" i.sc
EndChar

StartChar: J
Encoding: 74 74 9
Width: 1200
Flags: HMW
AnchorPoint: "Anchor-2" 498 0 basechar 0
AnchorPoint: "Anchor-0" 766 1300 basechar 0
LayerCount: 2
Fore
SplineSet
100 350 m 1
 127 350 l 1
 147 157 271 10 499 10 c 0
 747 10 864.722619441 197.000330215 865 430 c 2
 866 1270 l 1
 521 1270 l 5
 521 1300 l 5
 1110 1300 l 1
 1110 1270 l 1
 900 1270 l 1
 899 430 l 2
 899 174 765 -20 499 -20 c 0
 253 -20 110 144 100 350 c 1
EndSplineSet
Substitution2: "'c2sc' Capitals to Small Capitals in Latin lookup 0 subtable" j.sc
EndChar

StartChar: K
Encoding: 75 75 10
Width: 1200
Flags: HMW
AnchorPoint: "Anchor-2" 661 0 basechar 0
AnchorPoint: "Anchor-0" 626 1300 basechar 0
LayerCount: 2
Fore
SplineSet
661 1300 m 1
 1140 1300 l 1
 1140 1270 l 1
 913 1270 l 1
 558 810 l 5
 1020 30 l 1
 1180 30 l 1
 1180 0 l 1
 711 0 l 1
 711 30 l 1
 983 30 l 1
 536 789 l 5
 295 487 l 1
 295 30 l 1
 529 30 l 1
 529 0 l 1
 70 0 l 1
 70 30 l 1
 260 30 l 1
 260 1270 l 1
 70 1270 l 1
 70 1300 l 1
 509 1300 l 1
 509 1270 l 1
 295 1270 l 1
 295 534 l 1
 877 1270 l 1
 661 1270 l 1
 661 1300 l 1
EndSplineSet
Substitution2: "'c2sc' Capitals to Small Capitals in Latin lookup 0 subtable" k.sc
EndChar

StartChar: L
Encoding: 76 76 11
Width: 1200
Flags: HMW
AnchorPoint: "Anchor-2" 616 0 basechar 0
AnchorPoint: "Anchor-1" 789 943 basechar 0
AnchorPoint: "Anchor-0" 344 1300 basechar 0
LayerCount: 2
Fore
SplineSet
1081 550 m 1
 1100 550 l 1
 1080 0 l 1
 70 0 l 1
 70 30 l 1
 280 30 l 5
 280 1270 l 5
 90 1270 l 1
 90 1300 l 1
 619 1300 l 1
 619 1270 l 1
 315 1270 l 5
 315 30 l 5
 1045 30 l 1
 1081 550 l 1
EndSplineSet
Substitution2: "'c2sc' Capitals to Small Capitals in Latin lookup 0 subtable" l.sc
EndChar

StartChar: M
Encoding: 77 77 12
Width: 1200
Flags: HMW
AnchorPoint: "Anchor-2" 606 0 basechar 0
AnchorPoint: "Anchor-0" 606 1300 basechar 0
LayerCount: 2
Back
SplineSet
158 1170 m 1
 0 1170 l 1
 0 1300 l 1
 383 1300 l 1
 645 480 l 1
 555 480 l 1
 817 1300 l 1
 1200 1300 l 1
 1200 1170 l 1
 1042 1170 l 1
 1058 130 l 1
 1200 130 l 1
 1200 0 l 1
 761 0 l 1
 761 130 l 1
 914 130 l 1
 899 724 l 1
 934 1204 l 1
 630 350 l 1
 570 350 l 1
 266 1204 l 1
 301 724 l 1
 286 130 l 1
 439 130 l 1
 439 0 l 1
 0 0 l 1
 0 130 l 1
 142 130 l 1
 158 1170 l 1
EndSplineSet
Fore
SplineSet
158 1270 m 1
 0 1270 l 1
 0 1300 l 1
 213 1300 l 1
 605 390 l 5
 596 390 l 5
 987 1300 l 1
 1200 1300 l 1
 1200 1270 l 1
 1042 1270 l 1
 1058 30 l 1
 1200 30 l 1
 1200 0 l 1
 731 0 l 1
 731 30 l 1
 1023 30 l 1
 1014 724 l 1
 1017 1284 l 1
 615 350 l 1
 586 350 l 1
 181 1284 l 1
 186 724 l 1
 177 30 l 1
 469 30 l 1
 469 0 l 1
 0 0 l 1
 0 30 l 1
 142 30 l 1
 158 1270 l 1
EndSplineSet
Substitution2: "'c2sc' Capitals to Small Capitals in Latin lookup 0 subtable" m.sc
EndChar

StartChar: N
Encoding: 78 78 13
Width: 1200
Flags: HMW
AnchorPoint: "Anchor-2" 626 0 basechar 0
AnchorPoint: "Anchor-0" 636 1300 basechar 0
LayerCount: 2
Fore
SplineSet
220 1270 m 1
 62 1270 l 1
 62 1300 l 1
 220 1300 l 1
 220 1270 l 1
220 1300 m 1
 265 1300 l 1
 1035 23 l 1
 1035 1320 l 1
 1070 1320 l 1
 1070 -20 l 1
 1018 -20 l 5
 412 987 l 1
 242 1284 l 1
 255 997 l 1
 255 -20 l 1
 220 -20 l 1
 220 1300 l 1
EndSplineSet
Substitution2: "'c2sc' Capitals to Small Capitals in Latin lookup 0 subtable" n.sc
EndChar

StartChar: O
Encoding: 79 79 14
Width: 1200
Flags: HMW
AnchorPoint: "Anchor-2" 599 0 basechar 0
AnchorPoint: "Anchor-0" 599 1300 basechar 0
LayerCount: 2
Fore
SplineSet
599 -20 m 4
 283 -20 100 214 100 650 c 4
 100 1076 302 1320 599 1320 c 4
 896 1320 1099 1076 1099 650 c 4
 1099 214 915 -20 599 -20 c 4
599 1290 m 4
 321 1290 135 1063 135 650 c 4
 135 237 311 10 599 10 c 4
 887 10 1064 237 1064 650 c 4
 1064 1063 877 1290 599 1290 c 4
EndSplineSet
Substitution2: "'c2sc' Capitals to Small Capitals in Latin lookup 0 subtable" o.sc
EndChar

StartChar: P
Encoding: 80 80 15
Width: 1200
Flags: HMW
AnchorPoint: "Anchor-2" 362 0 basechar 0
AnchorPoint: "Anchor-0" 566 1300 basechar 0
LayerCount: 2
Fore
SplineSet
100 0 m 1
 100 30 l 1
 310 30 l 1
 310 1270 l 1
 100 1270 l 1
 100 1300 l 1
 662 1300 l 2
 958 1300 1121 1166 1121 910 c 0
 1121 664 939 530 662 530 c 2
 345 530 l 1
 345 30 l 1
 669 30 l 1
 669 0 l 1
 100 0 l 1
345 560 m 1
 662 560 l 2
 910 560 1086 677 1086 910 c 0
 1086 1153 930 1270 662 1270 c 2
 345 1270 l 1
 345 560 l 1
EndSplineSet
Substitution2: "'c2sc' Capitals to Small Capitals in Latin lookup 0 subtable" p.sc
EndChar

StartChar: Q
Encoding: 81 81 16
Width: 1200
Flags: HMW
AnchorPoint: "Anchor-0" 599 1300 basechar 0
LayerCount: 2
Fore
SplineSet
241 167 m 1
 251 313 384 472 515 472 c 0
 814 472 663 -248 923 -248 c 0
 1029 -248 1091 -110 1141 12 c 1
 1170 1 l 1
 1120 -131 1047 -278 920 -278 c 0
 630 -278 779 442 511 442 c 4
 388 442 267 258 267 137 c 5
 241 167 l 1
599 -20 m 0
 283 -20 100 214 100 650 c 0
 100 1076 302 1320 599 1320 c 0
 896 1320 1099 1076 1099 650 c 0
 1099 214 915 -20 599 -20 c 0
599 1290 m 0
 321 1290 135 1063 135 650 c 0
 135 237 311 10 599 10 c 0
 887 10 1064 237 1064 650 c 0
 1064 1063 877 1290 599 1290 c 0
EndSplineSet
Substitution2: "'c2sc' Capitals to Small Capitals in Latin lookup 0 subtable" q.sc
EndChar

StartChar: R
Encoding: 82 82 17
Width: 1200
Flags: HMW
AnchorPoint: "Anchor-2" 586 0 basechar 0
AnchorPoint: "Anchor-0" 546 1300 basechar 0
LayerCount: 2
Fore
SplineSet
40 0 m 1
 40 30 l 1
 245 30 l 1
 245 1270 l 1
 40 1270 l 1
 40 1300 l 1
 552 1300 l 2
 858 1300 1011 1196 1011 950 c 0
 1011 714 739 639 512 639 c 1
 512 654 l 1
 758 654 804.120578778 509.596016435 826 275 c 0
 844 82 863 -10 969 -10 c 0
 1122 -10 1133 191 1143 324 c 5
 1171 320 l 1
 1161 114 1127 -40 971 -40 c 0
 825 -40 810 80 791 275 c 0
 771 478 740 635 482 635 c 2
 280 635 l 1
 280 30 l 1
 562 30 l 1
 562 0 l 1
 40 0 l 1
280 670 m 1
 522 670 l 2
 730 670 976 732 976 945 c 0
 976 1168 840 1270 552 1270 c 2
 280 1270 l 1
 280 670 l 1
EndSplineSet
Substitution2: "'c2sc' Capitals to Small Capitals in Latin lookup 0 subtable" r.sc
EndChar

StartChar: S
Encoding: 83 83 18
Width: 1200
Flags: HMW
AnchorPoint: "Anchor-3" 636 0 basechar 0
AnchorPoint: "Anchor-2" 635 0 basechar 0
AnchorPoint: "Anchor-0" 606 1300 basechar 0
LayerCount: 2
Fore
SplineSet
1007 1310 m 1
 1032 1310 l 1
 1032 909 l 1
 997 909 l 1
 957 1062 802 1290 544 1290 c 0
 333 1290 194 1193 194 1030 c 0
 194 780 490.91015625 738.693359375 651 692 c 0
 867 629 1089 593 1089 320 c 0
 1089 100 882 -29 650 -29 c 4
 373 -29 126 211 126 471 c 1
 142 461 l 1
 132 -10 l 1
 107 -10 l 1
 107 481 l 1
 142 481 l 1
 162 213 397 1 650 1 c 4
 862 1 1054 130 1054 319 c 0
 1054 563 804 612 640 659 c 0
 453.921542428 712.327362841 159 758 159 1030 c 0
 159 1221 318 1320 544 1320 c 0
 820 1320 985 1079 1025 919 c 1
 997 919 l 1
 1007 1310 l 1
EndSplineSet
Substitution2: "'c2sc' Capitals to Small Capitals in Latin lookup 0 subtable" s.sc
EndChar

StartChar: T
Encoding: 84 84 19
Width: 1200
Flags: HMW
AnchorPoint: "Anchor-3" 601 0 basechar 0
AnchorPoint: "Anchor-0" 599 1300 basechar 0
AnchorPoint: "Anchor-2" 599 0 basechar 0
LayerCount: 2
Fore
SplineSet
89 840 m 1
 70 840 l 1
 70 1300 l 1
 1130 1300 l 1
 1130 840 l 1
 1111 840 l 1
 1095 1270 l 1
 618 1270 l 1
 618 30 l 1
 869 30 l 1
 869 0 l 1
 320 0 l 1
 320 30 l 1
 581 30 l 1
 581 1270 l 1
 105 1270 l 5
 89 840 l 1
EndSplineSet
Substitution2: "'c2sc' Capitals to Small Capitals in Latin lookup 0 subtable" t.sc
EndChar

StartChar: U
Encoding: 85 85 20
Width: 1200
Flags: HMW
AnchorPoint: "Anchor-0" 599 1300 basechar 0
AnchorPoint: "Anchor-2" 599 0 basechar 0
AnchorPoint: "Anchor-3" 821 60 basechar 0
LayerCount: 2
Fore
SplineSet
230 430 m 2
 230 1270 l 1
 40 1270 l 1
 40 1300 l 1
 529 1300 l 1
 529 1270 l 1
 265 1270 l 1
 265 430 l 6
 265 197 361 10 599 10 c 0
 837 10 933.722619441 197.000330215 934 430 c 6
 935 1270 l 1
 671 1270 l 1
 671 1300 l 1
 1160 1300 l 1
 1160 1270 l 1
 970 1270 l 1
 969 430 l 2
 969 174 865 -20 599 -20 c 0
 333 -20 230 174 230 430 c 2
EndSplineSet
Substitution2: "'c2sc' Capitals to Small Capitals in Latin lookup 0 subtable" u.sc
EndChar

StartChar: V
Encoding: 86 86 21
Width: 1200
Flags: HMW
AnchorPoint: "Anchor-0" 599 1300 basechar 0
AnchorPoint: "Anchor-2" 599 0 basechar 0
LayerCount: 2
Fore
SplineSet
966 1270 m 1
 701 1270 l 1
 701 1300 l 1
 1170 1300 l 1
 1170 1270 l 1
 998 1270 l 1
 670 -20 l 1
 530 -20 l 1
 202 1270 l 5
 30 1270 l 1
 30 1300 l 1
 499 1300 l 1
 499 1270 l 1
 234 1270 l 5
 557 10 l 1
 643 10 l 1
 966 1270 l 1
EndSplineSet
Substitution2: "'c2sc' Capitals to Small Capitals in Latin lookup 0 subtable" v.sc
EndChar

StartChar: W
Encoding: 87 87 22
Width: 1200
Flags: HMW
AnchorPoint: "Anchor-0" 599 1300 basechar 0
AnchorPoint: "Anchor-2" 599 0 basechar 0
LayerCount: 2
Back
SplineSet
246 1330 m 1
 357 426 l 1
 367 136 l 1
 337 136 l 1
 545 1030 l 1
 655 1030 l 1
 863 136 l 1
 833 136 l 1
 853 426 l 1
 954 1330 l 1
 1120 1330 l 1
 935 0 l 1
 752 0 l 1
 560 920 l 1
 640 920 l 1
 448 0 l 1
 265 0 l 1
 80 1330 l 1
 246 1330 l 1
EndSplineSet
Fore
SplineSet
185 1270 m 1
 263 416 l 1
 297 30 l 1
 327 30 l 1
 580 1000 l 1
 620 1000 l 1
 873 30 l 1
 903 30 l 1
 937 416 l 1
 1015 1270 l 1
 731 1270 l 1
 731 1300 l 1
 1190 1300 l 1
 1190 1270 l 1
 1045 1270 l 1
 935 0 l 1
 842 0 l 1
 595 977 l 1
 605 977 l 1
 358 0 l 1
 265 0 l 1
 155 1270 l 5
 10 1270 l 1
 10 1300 l 1
 459 1300 l 1
 459 1270 l 1
 185 1270 l 1
EndSplineSet
Substitution2: "'c2sc' Capitals to Small Capitals in Latin lookup 0 subtable" w.sc
EndChar

StartChar: X
Encoding: 88 88 23
Width: 1200
Flags: HMW
AnchorPoint: "Anchor-0" 599 1300 basechar 0
AnchorPoint: "Anchor-2" 599 0 basechar 0
LayerCount: 2
Fore
SplineSet
80 1300 m 1
 529 1300 l 1
 529 1270 l 1
 249 1270 l 1
 600 702 l 1
 951 1270 l 1
 671 1270 l 1
 671 1300 l 1
 1120 1300 l 1
 1120 1270 l 1
 991 1270 l 1
 620 684 l 5
 1011 30 l 1
 1160 30 l 1
 1160 0 l 1
 691 0 l 1
 691 30 l 1
 971 30 l 1
 600 656 l 1
 229 30 l 1
 509 30 l 1
 509 0 l 1
 40 0 l 1
 40 30 l 1
 189 30 l 1
 580 684 l 1
 209 1270 l 1
 80 1270 l 1
 80 1300 l 1
EndSplineSet
Substitution2: "'c2sc' Capitals to Small Capitals in Latin lookup 0 subtable" x.sc
EndChar

StartChar: Y
Encoding: 89 89 24
Width: 1200
Flags: HMW
AnchorPoint: "Anchor-0" 599 1300 basechar 0
AnchorPoint: "Anchor-2" 599 0 basechar 0
LayerCount: 2
Fore
SplineSet
320 0 m 1
 320 30 l 1
 581 30 l 1
 581 480 l 1
 184 1270 l 1
 30 1270 l 1
 30 1300 l 1
 508 1300 l 1
 508 1270 l 1
 221 1270 l 1
 610 495 l 1
 589 495 l 5
 979 1270 l 5
 710 1270 l 1
 710 1300 l 1
 1170 1300 l 1
 1170 1270 l 1
 1016 1270 l 1
 618 480 l 1
 618 30 l 1
 869 30 l 1
 869 0 l 1
 320 0 l 1
EndSplineSet
Substitution2: "'c2sc' Capitals to Small Capitals in Latin lookup 0 subtable" y.sc
EndChar

StartChar: Z
Encoding: 90 90 25
Width: 1200
Flags: HMW
AnchorPoint: "Anchor-0" 599 1300 basechar 0
AnchorPoint: "Anchor-2" 599 0 basechar 0
LayerCount: 2
Fore
SplineSet
1031 460 m 5
 1050 460 l 5
 1010 0 l 5
 140 0 l 5
 130 20 l 5
 947 1270 l 5
 194 1270 l 5
 179 900 l 5
 160 900 l 5
 160 1300 l 5
 980 1300 l 5
 990 1280 l 5
 173 30 l 5
 983 30 l 5
 1031 460 l 5
EndSplineSet
Substitution2: "'c2sc' Capitals to Small Capitals in Latin lookup 0 subtable" z.sc
EndChar

StartChar: a
Encoding: 97 97 29
Width: 1200
Flags: HMW
AnchorPoint: "Anchor-3" 980 0 basechar 0
AnchorPoint: "Anchor-2" 526 0 basechar 0
AnchorPoint: "Anchor-0" 586 920 basechar 0
LayerCount: 2
Back
SplineSet
942 630 m 6
 942 155 l 6
 942 125 956 110 986 110 c 4
 1026 110 1059 143 1079 173 c 5
 1169 93 l 5
 1119 23 1052 -25 952 -25 c 4
 852 -25 783 30 783 120 c 6
 783 630 l 6
 783 723 745 800 607 800 c 4
 489 800 376 740 281 667 c 5
 182 770 l 5
 302 866 455 940 622 940 c 4
 859 940 942 787 942 630 c 6
284 226 m 4
 284 160 335 115 423 115 c 4
 561 115 713 207 813 300 c 5
 873 210 l 5
 743 94 600 -20 413 -20 c 4
 227 -20 114 74 114 220 c 4
 114 473 420 528 783 609 c 5
 822 498 l 5
 486 423 284 370 284 226 c 4
EndSplineSet
Fore
SplineSet
922 630 m 2
 922 111 l 2
 922 12 987 5 1017 5 c 0
 1087 5 1119 47 1144 81 c 1
 1169 63 l 1
 1147 34 1107 -25 1017 -25 c 0
 957 -25 887 5 887 110 c 2
 887 630 l 2
 887 763 843 910 622 910 c 0
 475 910 372 832 253 746 c 1
 232 770 l 1
 362 856 455 940 622 940 c 0
 859 940 922 787 922 630 c 2
199 210 m 0
 199 88 300 15 448 15 c 0
 646 15 788 137 891 252 c 1
 913 240 l 1
 802 104 660 -20 443 -20 c 0
 287 -20 164 64 164 210 c 0
 164 463 540 538 903 589 c 5
 903 559 l 5
 567 514 199 434 199 210 c 0
EndSplineSet
Substitution2: "'smcp' Lowercase to Small Capitals in Latin lookup 0 subtable" a.sc
EndChar

StartChar: b
Encoding: 98 98 30
Width: 1200
Flags: HMW
AnchorPoint: "Anchor-2" 606 0 basechar 0
AnchorPoint: "Anchor-0" 736 920 basechar 0
LayerCount: 2
Fore
SplineSet
634 910 m 0
 396 910 177 723 177 460 c 0
 177 187 386 10 614 10 c 0
 852 10 1044 187 1044 460 c 0
 1044 723 852 910 634 910 c 0
614 -20 m 0
 358 -20 155 164 155 460 c 0
 155 746 367 940 634 940 c 0
 871 940 1079 736 1079 460 c 0
 1079 174 880 -20 614 -20 c 0
142 1330 m 1
 142 1300 l 1
 -48 1300 l 1
 -48 1330 l 1
 142 1330 l 1
177 330 m 5
 162 0 l 1
 142 0 l 1
 142 1330 l 1
 177 1330 l 1
 177 330 l 5
EndSplineSet
Substitution2: "'smcp' Lowercase to Small Capitals in Latin lookup 0 subtable" b.sc
Substitution2: "'ss01' Style Set 1 in Latin lookup 0-1" b.alt
EndChar

StartChar: o
Encoding: 111 111 31
Width: 1200
Flags: HMW
AnchorPoint: "Anchor-2" 593 0 basechar 0
AnchorPoint: "Anchor-0" 594 920 basechar 0
LayerCount: 2
Fore
SplineSet
594 -20 m 0
 318 -20 126 144 126 460 c 4
 126 766 337 940 594 940 c 0
 851 940 1074 766 1074 460 c 0
 1074 144 870 -20 594 -20 c 0
594 910 m 4
 356 910 161 743 161 460 c 4
 161 167 346 10 594 10 c 0
 842 10 1039 167 1039 460 c 4
 1039 743 832 910 594 910 c 4
EndSplineSet
Substitution2: "'smcp' Lowercase to Small Capitals in Latin lookup 0 subtable" o.sc
EndChar

StartChar: l
Encoding: 108 108 32
Width: 1200
Flags: HMW
AnchorPoint: "Anchor-2" 634 0 basechar 0
AnchorPoint: "Anchor-1" 623 920 basechar 0
AnchorPoint: "Anchor-0" 608 1330 basechar 0
LayerCount: 2
Fore
SplineSet
180 0 m 1
 180 30 l 1
 607 30 l 1
 607 1300 l 1
 240 1300 l 1
 240 1330 l 1
 642 1330 l 1
 642 30 l 1
 1090 30 l 1
 1090 0 l 1
 180 0 l 1
EndSplineSet
Substitution2: "'smcp' Lowercase to Small Capitals in Latin lookup 0 subtable" l.sc
EndChar

StartChar: n
Encoding: 110 110 33
Width: 1200
Flags: HMW
AnchorPoint: "Anchor-2" 626 0 basechar 0
AnchorPoint: "Anchor-0" 636 920 basechar 0
LayerCount: 2
Back
SplineSet
210 790 m 5
 40 790 l 5
 40 920 l 5
 210 920 l 5
 210 790 l 5
1038 570 m 2
 1038 0 l 1
 874 0 l 1
 874 580 l 2
 874 733 811 810 683 810 c 0
 515 810 374 653 374 440 c 2
 374 0 l 1
 210 0 l 1
 210 920 l 1
 334 920 l 1
 374 730 l 1
 294 550 l 1
 294 706 446 940 713 940 c 0
 925 940 1038 806 1038 570 c 2
EndSplineSet
Fore
SplineSet
250 890 m 5
 40 890 l 5
 40 920 l 5
 250 920 l 5
 250 890 l 5
988 570 m 6
 988 0 l 5
 953 0 l 5
 953 580 l 6
 953 803 846 910 668 910 c 4
 447 910 285 723 285 490 c 6
 285 0 l 5
 250 0 l 5
 250 920 l 5
 275 920 l 5
 285 600 l 5
 265 500 l 5
 265 726 401 940 678 940 c 4
 855 940 988 836 988 570 c 6
EndSplineSet
Substitution2: "'smcp' Lowercase to Small Capitals in Latin lookup 0 subtable" n.sc
EndChar

StartChar: i
Encoding: 105 105 34
Width: 1200
Flags: HMW
AnchorPoint: "Anchor-3" 640 0 basechar 0
AnchorPoint: "Anchor-2" 645 0 basechar 0
LayerCount: 2
Fore
SplineSet
600 1335 m 4
 600 1363 616 1380 644 1380 c 4
 672 1380 689 1363 689 1335 c 4
 689 1307 673 1290 645 1290 c 4
 617 1290 600 1307 600 1335 c 4
200 0 m 1
 200 30 l 1
 631 30 l 1
 631 890 l 1
 260 890 l 1
 260 920 l 1
 667 920 l 1
 667 30 l 1
 1100 30 l 1
 1100 0 l 1
 200 0 l 1
EndSplineSet
Substitution2: "'smcp' Lowercase to Small Capitals in Latin lookup 0 subtable" i.sc
EndChar

StartChar: k
Encoding: 107 107 35
Width: 1200
Flags: HMW
AnchorPoint: "Anchor-2" 596 0 basechar 0
AnchorPoint: "Anchor-0" 716 920 basechar 0
LayerCount: 2
Back
SplineSet
1048 570 m 2
 1048 0 l 1
 879 0 l 1
 879 580 l 2
 879 733 816 810 668 810 c 0
 480 810 389 653 389 440 c 2
 389 0 l 1
 220 0 l 1
 220 1190 l 1
 30 1190 l 1
 30 1330 l 1
 389 1330 l 1
 389 750 l 1
 309 550 l 1
 309 706 431 940 708 940 c 0
 935 940 1048 806 1048 570 c 2
EndSplineSet
Fore
SplineSet
1155 0 m 5
 640 530 l 5
 670 550 l 5
 1210 0 l 5
 1155 0 l 5
1074 920 m 5
 1132 920 l 5
 295 220 l 5
 295 0 l 5
 260 0 l 5
 260 1300 l 5
 30 1300 l 5
 30 1330 l 5
 295 1330 l 5
 295 264 l 5
 1074 920 l 5
EndSplineSet
Substitution2: "'smcp' Lowercase to Small Capitals in Latin lookup 0 subtable" k.sc
EndChar

StartChar: j
Encoding: 106 106 36
Width: 1200
Flags: HMW
AnchorPoint: "Anchor-2" 496 -400 basechar 0
LayerCount: 2
Fore
SplineSet
500 -400 m 5
 500 -430 l 5
 313 -430 190 -331 115 -231 c 5
 139 -210 l 5
 221 -312 332 -400 500 -400 c 5
780 1335 m 0
 780 1363 796 1380 824 1380 c 0
 852 1380 869 1363 869 1335 c 0
 869 1307 853 1290 825 1290 c 0
 797 1290 780 1307 780 1335 c 0
909 920 m 5
 909 10 l 6
 909 -236 807 -430 500 -430 c 5
 500 -400 l 5
 798 -400 874 -203 874 10 c 6
 874 890 l 5
 320 890 l 5
 320 920 l 5
 909 920 l 5
EndSplineSet
Substitution2: "'smcp' Lowercase to Small Capitals in Latin lookup 0 subtable" j.sc
EndChar

StartChar: h
Encoding: 104 104 37
Width: 1200
Flags: HMW
AnchorPoint: "Anchor-2" 618 0 basechar 0
AnchorPoint: "Anchor-0" 780 1030 basechar 0
LayerCount: 2
Fore
SplineSet
1048 570 m 2
 1048 0 l 1
 1013 0 l 1
 1013 580 l 2
 1013 773 926 910 698 910 c 0
 457 910 255 723 255 490 c 2
 255 0 l 1
 220 0 l 1
 220 1300 l 1
 10 1300 l 1
 10 1330 l 1
 255 1330 l 5
 255 600 l 1
 235 500 l 1
 235 726 411 940 708 940 c 0
 935 940 1048 806 1048 570 c 2
EndSplineSet
Substitution2: "'smcp' Lowercase to Small Capitals in Latin lookup 0 subtable" h.sc
Substitution2: "'ss01' Style Set 1 in Latin lookup 0-1" h.alt
EndChar

StartChar: m
Encoding: 109 109 38
Width: 1200
Flags: HMW
AnchorPoint: "Anchor-2" 615 0 basechar 0
AnchorPoint: "Anchor-0" 636 1120 basechar 0
LayerCount: 2
Fore
SplineSet
182 890 m 1
 30 890 l 1
 30 920 l 1
 182 920 l 1
 182 890 l 1
636 690 m 2
 636 0 l 1
 601 0 l 1
 601 690 l 2
 601 813 561 910 443 910 c 0
 325 910 217 763 217 600 c 6
 217 0 l 1
 182 0 l 1
 182 920 l 1
 207 920 l 1
 217 720 l 5
 199 608 l 5
 199 774 291 940 448 940 c 0
 575 940 636 846 636 690 c 2
1055 660 m 2
 1055 0 l 1
 1020 0 l 1
 1020 660 l 2
 1020 823 982 910 864 910 c 0
 699 910 636 703 636 590 c 1
 618 590 l 1
 618 736 680 940 867 940 c 0
 1014 940 1055 836 1055 660 c 2
EndSplineSet
Substitution2: "'smcp' Lowercase to Small Capitals in Latin lookup 0 subtable" m.sc
EndChar

StartChar: e
Encoding: 101 101 39
Width: 1200
Flags: HMW
AnchorPoint: "Anchor-3" 736 2 basechar 0
AnchorPoint: "Anchor-2" 665 0 basechar 0
AnchorPoint: "Anchor-0" 645 920 basechar 0
LayerCount: 2
Back
SplineSet
680 800 m 1
 477 800 312 671 312 448 c 0
 312 235 436 120 674 120 c 1
 664 -20 l 1
 303 -20 135 164 135 430 c 0
 135 726 368 940 680 940 c 1
 680 800 l 1
680 800 m 1
 680 940 l 1
 920 940 1041 814 1041 667 c 0
 1041 589 1035 530 1034 510 c 1
 889 510 l 1
 892 541 894 551 894 581 c 0
 894 716 801 800 680 800 c 1
1065 120 m 1
 985 47 850 -20 664 -20 c 1
 674 120 l 1
 781 120 904 171 954 214 c 1
 1065 120 l 1
EndSplineSet
Fore
SplineSet
1041 109 m 1
 961 43 808 -20 632 -20 c 5
 640 11 l 1
 807 11 954 79 1023 137 c 1
 1041 109 l 1
632 -20 m 5
 316 -20 136 154 136 440 c 0
 136 736 362 940 649 940 c 0
 876 940 1032 795 1032 582 c 0
 1032 514 1027 477 1017 437 c 1
 168 407 l 1
 168 432 l 1
 987 472 l 1
 1040 769 861 911 651 911 c 0
 354 911 171 693 171 450 c 0
 171 167 342 11 640 11 c 1
 632 -20 l 5
EndSplineSet
Substitution2: "'smcp' Lowercase to Small Capitals in Latin lookup 0 subtable" e.sc
EndChar

StartChar: p
Encoding: 112 112 40
Width: 1200
Flags: HMW
AnchorPoint: "Anchor-2" 776 0 basechar 0
AnchorPoint: "Anchor-0" 706 920 basechar 0
LayerCount: 2
Back
SplineSet
210 780 m 1
 40 780 l 1
 40 920 l 1
 210 920 l 1
 210 780 l 1
1038 570 m 2
 1038 0 l 1
 869 0 l 1
 869 580 l 2
 869 733 806 810 678 810 c 0
 510 810 379 653 379 440 c 2
 379 0 l 1
 210 0 l 1
 210 920 l 1
 329 920 l 1
 369 730 l 1
 299 550 l 1
 299 706 446 940 713 940 c 0
 925 940 1038 806 1038 570 c 2
EndSplineSet
Fore
SplineSet
664 10 m 4
 872 10 1064 177 1064 460 c 0
 1064 763 882 910 664 910 c 4
 416 910 287 713 287 460 c 0
 287 167 436 10 664 10 c 4
664 940 m 4
 900 940 1099 786 1099 460 c 4
 1099 144 881 -20 664 -20 c 4
 407 -20 267 144 267 460 c 0
 267 746 398 940 664 940 c 4
277 920 m 1
 287 532 l 1
 287 -300 l 1
 601 -300 l 1
 601 -330 l 1
 52 -330 l 1
 52 -300 l 1
 252 -300 l 1
 252 890 l 1
 42 890 l 1
 42 920 l 1
 277 920 l 1
EndSplineSet
Substitution2: "'smcp' Lowercase to Small Capitals in Latin lookup 0 subtable" p.sc
EndChar

StartChar: t
Encoding: 116 116 41
Width: 1200
Flags: HMW
AnchorPoint: "Anchor-3" 608 0 basechar 0
AnchorPoint: "Anchor-2" 686 0 basechar 0
AnchorPoint: "Anchor-1" 704 1020 basechar 0
AnchorPoint: "Anchor-0" 456 1130 basechar 0
LayerCount: 2
Fore
SplineSet
699 20 m 1
 847 20 986 88 1048 148 c 1
 1071 126 l 1
 996 56 856 -10 699 -10 c 1
 699 20 l 1
405 1170 m 1
 405 920 l 1
 999 920 l 1
 999 880 l 1
 404 891 l 1
 404 390 l 2
 404 177.1640625 461 20 699 20 c 1
 699 -10 l 1
 442 -10 370 154.163085938 370 390 c 2
 370 890 l 1
 130 890 l 1
 130 920 l 1
 370 920 l 5
 390 1170 l 5
 405 1170 l 1
EndSplineSet
Substitution2: "'smcp' Lowercase to Small Capitals in Latin lookup 0 subtable" t.sc
EndChar

StartChar: c
Encoding: 99 99 42
Width: 1200
Flags: HMW
AnchorPoint: "Anchor-3" 636 2 basechar 0
AnchorPoint: "Anchor-2" 636 0 basechar 0
AnchorPoint: "Anchor-0" 656 920 basechar 0
LayerCount: 2
Fore
SplineSet
655 910 m 5
 395 910 170 718 170 435 c 0
 170 179 351 10 649 10 c 1
 644 -20 l 1
 313 -20 135 164 135 430 c 0
 135 736 368 940 660 940 c 5
 655 910 l 5
655 910 m 5
 660 940 l 1
 840 940 1041 854 1041 647 c 0
 1041 609 1036 560 1027 510 c 1
 995 510 l 1
 1005 560 1010 617 1010 647 c 0
 1010 841 816 910 655 910 c 5
1042 103 m 1
 962 30 780 -20 644 -20 c 1
 649 10 l 1
 766 10 943 58 1024 126 c 1
 1042 103 l 1
EndSplineSet
Substitution2: "'smcp' Lowercase to Small Capitals in Latin lookup 0 subtable" c.sc
EndChar

StartChar: u
Encoding: 117 117 43
Width: 1200
Flags: HMW
AnchorPoint: "Anchor-3" 1040 0 basechar 0
AnchorPoint: "Anchor-2" 586 0 basechar 0
AnchorPoint: "Anchor-0" 626 920 basechar 0
LayerCount: 2
Fore
SplineSet
102 920 m 5
 272 920 l 5
 272 891 l 5
 102 891 l 5
 102 920 l 5
815 920 m 5
 975 920 l 5
 975 890 l 5
 815 890 l 5
 815 920 l 5
272 350 m 6
 272 920 l 5
 307 920 l 5
 307 340 l 6
 307 117 414 10 592 10 c 4
 813 10 975 197 975 430 c 6
 975 920 l 5
 1010 920 l 5
 1010 0 l 5
 985 0 l 5
 975 320 l 5
 995 420 l 5
 995 194 859 -20 582 -20 c 4
 405 -20 272 84 272 350 c 6
EndSplineSet
Substitution2: "'smcp' Lowercase to Small Capitals in Latin lookup 0 subtable" u.sc
EndChar

StartChar: r
Encoding: 114 114 44
Width: 1200
Flags: HMW
AnchorPoint: "Anchor-2" 436 0 basechar 0
AnchorPoint: "Anchor-0" 606 920 basechar 0
LayerCount: 2
Back
SplineSet
813 820 m 1
 605 820 489 663 489 450 c 2
 489 130 l 1
 729 130 l 1
 729 0 l 1
 170 0 l 1
 170 130 l 1
 320 130 l 1
 320 780 l 1
 170 780 l 1
 170 920 l 1
 459 920 l 1
 489 690 l 1
 409 540 l 1
 409 696 561 940 818 940 c 1
 813 820 l 1
1067 760 m 0
 1067 692 1023 635 945 635 c 0
 882 635 827 677 827 745 c 0
 827 813 884 860 947 860 c 0
 1015 860 1067 808 1067 760 c 0
813 820 m 1
 818 940 l 1
 995 940 1067 836 1067 760 c 1
 957 730 l 1
 937 773 881 820 813 820 c 1
EndSplineSet
Fore
SplineSet
1107 540 m 1
 1086 537 l 1
 1066 900 l 1
 1107 900 l 1
 1107 540 l 1
958 905 m 1
 670 905 449 723 449 450 c 2
 449 30 l 1
 819 30 l 1
 819 0 l 1
 130 0 l 1
 130 30 l 1
 414 30 l 1
 414 890 l 1
 110 890 l 1
 110 920 l 1
 439 920 l 1
 449 570 l 1
 439 540 l 1
 439 726 651 940 948 940 c 1
 958 905 l 1
958 905 m 1
 948 940 l 1
 1055 940 1085 912 1107 900 c 1
 1087 870 l 1
 1075 877 1054 905 958 905 c 1
EndSplineSet
Substitution2: "'smcp' Lowercase to Small Capitals in Latin lookup 0 subtable" r.sc
EndChar

StartChar: q
Encoding: 113 113 45
Width: 1200
Flags: HMW
AnchorPoint: "Anchor-2" 456 0 basechar 0
AnchorPoint: "Anchor-0" 536 920 basechar 0
LayerCount: 2
Fore
SplineSet
596 910 m 0
 368 910 156 743 156 460 c 0
 156 167 348 10 586 10 c 0
 794 10 1023 187 1023 460 c 0
 1023 723 834 910 596 910 c 0
581 -20 m 0
 325 -20 121 154 121 460 c 0
 121 756 344 940 591 940 c 0
 848 940 1045 746 1045 460 c 0
 1045 164 807 -20 581 -20 c 0
1058 920 m 1
 1058 -300 l 1
 1288 -300 l 1
 1288 -330 l 1
 749 -330 l 1
 749 -300 l 1
 1023 -300 l 1
 1023 580 l 1
 1038 920 l 5
 1058 920 l 1
EndSplineSet
Substitution2: "'smcp' Lowercase to Small Capitals in Latin lookup 0 subtable" q.sc
EndChar

StartChar: s
Encoding: 115 115 46
Width: 1200
Flags: HMW
AnchorPoint: "Anchor-3" 596 0 basechar 0
AnchorPoint: "Anchor-2" 596 0 basechar 0
AnchorPoint: "Anchor-0" 596 920 basechar 0
LayerCount: 2
Back
SplineSet
1012 649 m 1
 859 649 l 1
 839 752 727 815 599 815 c 0
 488 815 397 778 397 694 c 0
 397 599 518.294921875 566.158203125 681 534 c 0
 898.182617188 491.07421875 1049 431 1049 258 c 0
 1049 68 872 -29 630 -29 c 0
 393 -29 187 86 187 331 c 1
 342 331 l 1
 362 183 477 111 630 111 c 0
 782 111 889 155 889 254 c 0
 889 346 785 367 631 403 c 0
 442.512695312 447.0625 239 488 239 680 c 0
 239 836 368 950 604 950 c 0
 850 950 1002 809 1012 649 c 1
EndSplineSet
Fore
SplineSet
1003 789 m 1
 980 767 l 1
 909 830 758 910 583 910 c 0
 352 910 234 824 234 720 c 4
 234 556 452.397451797 525.505177381 621 480 c 0
 820.645447276 426.116463906 1039 395 1039 226 c 0
 1039 76 841 -29 619 -29 c 0
 402 -29 220 47 120 151 c 1
 139 173 l 1
 239 69 437 1 619 1 c 0
 811 1 1004 97 1004 226 c 0
 1004 372 788.884529534 403.567276996 612 451 c 0
 433 499 199 528 199 720 c 4
 199 846 337 940 583 940 c 0
 779 940 940 849 1003 789 c 1
EndSplineSet
Substitution2: "'smcp' Lowercase to Small Capitals in Latin lookup 0 subtable" s.sc
EndChar

StartChar: g
Encoding: 103 103 47
Width: 1200
Flags: HMW
AnchorPoint: "Anchor-2" 535 -340 basechar 0
AnchorPoint: "Anchor-0" 679 920 basechar 0
LayerCount: 2
Fore
SplineSet
856 807 m 5
 845 819 l 5
 917 881 988 930 1128 970 c 5
 1137 939 l 5
 1014 909 921 857 856 807 c 5
562 920 m 4
 369 920 228 798 228 625 c 4
 228 442 359 330 562 330 c 4
 765 330 907 442 907 625 c 4
 907 798 755 920 562 920 c 4
562 300 m 4
 336 300 193 419 193 625 c 4
 193 821 355 950 562 950 c 4
 769 950 942 821 942 625 c 4
 942 419 788 300 562 300 c 4
462 330 m 5
 331 300 207 278 207 185 c 4
 207 117 258 47 404 47 c 6
 757 47 l 6
 973 47 1057 -28.5810546875 1057 -115 c 4
 1057 -285 830 -359 538 -359 c 4
 241 -359 125 -279 125 -149 c 4
 125 -49 212 21 389 41 c 5
 399 26 l 5
 231 -4 155 -60 155 -143 c 4
 155 -251 265 -329 538 -329 c 4
 810 -329 1022 -259 1022 -115 c 4
 1022 -46 953 17 739 17 c 6
 399 17 l 6
 247 17 177 98 177 185 c 4
 177 296 346 330 462 340 c 5
 462 330 l 5
EndSplineSet
Substitution2: "'smcp' Lowercase to Small Capitals in Latin lookup 0 subtable" g.sc
EndChar

StartChar: x
Encoding: 120 120 48
Width: 1200
Flags: HMW
AnchorPoint: "Anchor-0" 596 920 basechar 0
AnchorPoint: "Anchor-2" 597 0 basechar 0
LayerCount: 2
Fore
SplineSet
606 499 m 1
 1009 920 l 1
 1061 920 l 1
 637 475 l 1
 1101 0 l 1
 1052 0 l 5
 610 450 l 5
 168 0 l 1
 117 0 l 1
 582 475 l 1
 158 920 l 1
 207 920 l 1
 606 499 l 1
EndSplineSet
Substitution2: "'smcp' Lowercase to Small Capitals in Latin lookup 0 subtable" x.sc
EndChar

StartChar: d
Encoding: 100 100 49
Width: 1200
Flags: HMW
AnchorPoint: "Anchor-2" 825 0 basechar 0
AnchorPoint: "Anchor-1" 1318 920 basechar 0
AnchorPoint: "Anchor-0" 665 920 basechar 0
LayerCount: 2
Fore
SplineSet
596 910 m 0
 368 910 156 743 156 460 c 0
 156 167 348 10 586 10 c 0
 794 10 1023 187 1023 460 c 0
 1023 723 834 910 596 910 c 0
581 -20 m 0
 325 -20 121 154 121 460 c 0
 121 756 344 940 591 940 c 0
 848 940 1045 746 1045 460 c 0
 1045 164 807 -20 581 -20 c 0
833 1330 m 1
 1023 1330 l 1
 1023 1300 l 1
 833 1300 l 1
 833 1330 l 1
1023 310 m 5
 1023 1330 l 1
 1058 1330 l 1
 1058 0 l 1
 1038 0 l 1
 1023 310 l 5
EndSplineSet
Substitution2: "'smcp' Lowercase to Small Capitals in Latin lookup 0 subtable" d.sc
EndChar

StartChar: f
Encoding: 102 102 50
Width: 1200
Flags: HMW
AnchorPoint: "Anchor-2" 516 0 basechar 0
AnchorPoint: "Anchor-0" 840 1420 basechar 0
LayerCount: 2
Fore
SplineSet
839 1410 m 1
 839 1440 l 1
 1016 1440 1139 1371 1224 1311 c 1
 1203 1287 l 1
 1111 1351 997 1410 839 1410 c 1
210 0 m 1
 210 30 l 1
 514 30 l 1
 514 890 l 1
 210 890 l 1
 210 920 l 1
 513 920 l 1
 513 1000 l 2
 513 1246 582 1440 839 1440 c 1
 839 1410 l 1
 601 1410 549 1223 549 1000 c 2
 549 920 l 1
 1050 920 l 1
 1050 880 l 5
 549 890 l 5
 549 30 l 1
 1000 30 l 1
 1000 0 l 1
 210 0 l 1
EndSplineSet
Substitution2: "'smcp' Lowercase to Small Capitals in Latin lookup 0 subtable" f.sc
EndChar

StartChar: w
Encoding: 119 119 51
Width: 1200
Flags: HMW
AnchorPoint: "Anchor-0" 596 920 basechar 0
AnchorPoint: "Anchor-2" 597 0 basechar 0
LayerCount: 2
Fore
SplineSet
130 920 m 1
 334 16 l 1
 319 16 l 1
 575 720 l 1
 625 720 l 1
 880 16 l 1
 865 16 l 1
 1070 920 l 1
 1105 920 l 1
 895 0 l 1
 852 0 l 5
 595 710 l 5
 605 710 l 1
 348 0 l 1
 305 0 l 1
 95 920 l 1
 130 920 l 1
EndSplineSet
Substitution2: "'smcp' Lowercase to Small Capitals in Latin lookup 0 subtable" w.sc
EndChar

StartChar: y
Encoding: 121 121 52
Width: 1200
Flags: HMW
AnchorPoint: "Anchor-2" 306 -400 basechar 0
AnchorPoint: "Anchor-0" 596 920 basechar 0
LayerCount: 2
Fore
SplineSet
230 -370 m 1
 230 -400 l 1
 123 -400 60 -357 -15 -279 c 1
 7 -256 l 5
 79 -327 132 -370 230 -370 c 1
599 20 m 1
 117 920 l 1
 159 920 l 1
 622 38 l 1
 609 44 l 1
 1053 920 l 1
 1093 920 l 1
 640 30 l 2
 532.10403195 -181.981040981 427 -400 230 -400 c 1
 230 -370 l 1
 409 -370 506 -156 599 20 c 1
EndSplineSet
Substitution2: "'smcp' Lowercase to Small Capitals in Latin lookup 0 subtable" y.sc
EndChar

StartChar: v
Encoding: 118 118 53
Width: 1200
Flags: HMW
AnchorPoint: "Anchor-2" 597 0 basechar 0
AnchorPoint: "Anchor-0" 596 920 basechar 0
LayerCount: 2
Fore
SplineSet
1018 920 m 1
 1063 920 l 1
 625 0 l 1
 575 0 l 1
 137 920 l 1
 182 920 l 5
 610 10 l 1
 590 10 l 1
 1018 920 l 1
EndSplineSet
Substitution2: "'smcp' Lowercase to Small Capitals in Latin lookup 0 subtable" v.sc
EndChar

StartChar: z
Encoding: 122 122 54
Width: 1200
Flags: HMW
AnchorPoint: "Anchor-0" 596 920 basechar 0
AnchorPoint: "Anchor-2" 597 0 basechar 0
LayerCount: 2
Fore
SplineSet
1062 410 m 1
 1080 410 l 1
 1060 0 l 1
 170 0 l 1
 168 20 l 1
 982 890 l 1
 274 890 l 1
 233 570 l 5
 210 570 l 5
 240 920 l 1
 1030 920 l 1
 1032 900 l 1
 218 30 l 1
 1027 30 l 1
 1062 410 l 1
EndSplineSet
Substitution2: "'smcp' Lowercase to Small Capitals in Latin lookup 0 subtable" z.sc
EndChar

StartChar: exclam
Encoding: 33 33 55
Width: 1200
Flags: HMW
LayerCount: 2
Fore
SplineSet
451 130 m 0
 451 218 512 280 600 280 c 0
 688 280 749 218 749 130 c 0
 749 42 693 -20 605 -20 c 0
 517 -20 451 42 451 130 c 0
590 490 m 5
 490 1340 l 1
 710 1340 l 1
 610 490 l 5
 590 490 l 5
EndSplineSet
EndChar

StartChar: quotedbl
Encoding: 34 34 56
Width: 1200
Flags: HMW
LayerCount: 2
Fore
SplineSet
755 730 m 5
 725 1340 l 1
 935 1340 l 1
 875 730 l 5
 755 730 l 5
295 730 m 5
 265 1340 l 1
 475 1340 l 1
 415 730 l 5
 295 730 l 5
EndSplineSet
EndChar

StartChar: quotesingle
Encoding: 39 39 57
Width: 1200
Flags: HMW
LayerCount: 2
Fore
SplineSet
535 730 m 5
 495 1340 l 1
 705 1340 l 1
 655 730 l 5
 535 730 l 5
EndSplineSet
EndChar

StartChar: comma
Encoding: 44 44 58
Width: 1200
Flags: HMW
LayerCount: 2
Fore
SplineSet
460 -320 m 5
 500 290 l 5
 710 290 l 5
 580 -320 l 5
 460 -320 l 5
EndSplineSet
EndChar

StartChar: period
Encoding: 46 46 59
Width: 1200
VWidth: 2379
Flags: HMW
LayerCount: 2
Fore
SplineSet
451 130 m 4
 451 218 512 280 600 280 c 4
 688 280 749 218 749 130 c 4
 749 42 693 -20 605 -20 c 4
 517 -20 451 42 451 130 c 4
EndSplineSet
EndChar

StartChar: asterisk
Encoding: 42 42 60
Width: 1200
Flags: HMW
LayerCount: 2
Fore
SplineSet
551.952148438 891.842773438 m 1
 391.795898438 637.381835938 l 1
 343.254882812 672.649414062 l 1
 535.771484375 903.59765625 l 1
 551.952148438 891.842773438 l 1
691.565429688 1023.55371094 m 1
 970.702148438 1135.28125 l 1
 989.2421875 1078.21679688 l 1
 697.747070312 1004.53320312 l 1
 691.565429688 1023.55371094 l 1
501.202148438 999.036132812 m 1
 209.705078125 1072.72167969 l 1
 228.24609375 1129.78515625 l 1
 507.381835938 1018.05761719 l 1
 501.202148438 999.036132812 l 1
669.280273438 906.569335938 m 1
 861.796875 675.620117188 l 1
 813.254882812 640.353515625 l 1
 653.100585938 894.8125 l 1
 669.280273438 906.569335938 l 1
590 1080 m 1
 570 1380 l 1
 630 1380 l 1
 610 1080 l 1
 590 1080 l 1
EndSplineSet
EndChar

StartChar: b.alt
Encoding: 1114112 -1 61
Width: 1200
Flags: HMW
LayerCount: 2
Fore
SplineSet
634 910 m 0
 396 910 177 723 177 460 c 0
 177 187 386 10 614 10 c 0
 852 10 1044 187 1044 460 c 0
 1044 723 852 910 634 910 c 0
614 -20 m 0
 358 -20 155 164 155 460 c 0
 155 746 367 940 634 940 c 0
 871 940 1079 736 1079 460 c 0
 1079 174 880 -20 614 -20 c 0
177 190 m 1
 162 0 l 1
 142 0 l 1
 142 1330 l 1
 177 1330 l 1
 177 190 l 1
EndSplineSet
EndChar

StartChar: h.alt
Encoding: 1114113 -1 62
Width: 1200
Flags: HMW
LayerCount: 2
Fore
SplineSet
1048 570 m 2
 1048 0 l 1
 1013 0 l 1
 1013 580 l 2
 1013 773 926 910 698 910 c 0
 457 910 255 723 255 490 c 2
 255 0 l 1
 220 0 l 1
 220 1330 l 1
 255 1330 l 1
 255 600 l 1
 235 500 l 5
 235 726 411 940 708 940 c 0
 935 940 1048 806 1048 570 c 2
EndSplineSet
EndChar

StartChar: zero
Encoding: 48 48 63
Width: 1200
Flags: HMW
LayerCount: 2
Fore
SplineSet
550 655 m 0
 550 683 566 700 594 700 c 0
 622 700 639 683 639 655 c 0
 639 627 623 610 595 610 c 0
 567 610 550 627 550 655 c 0
599 -20 m 0
 323 -20 120 154 120 650 c 0
 120 1116 322 1320 599 1320 c 0
 876 1320 1079 1106 1079 650 c 0
 1079 154 885 -20 599 -20 c 0
599 1290 m 0
 341 1290 155 1093 155 650 c 0
 155 177 341 10 599 10 c 0
 847 10 1044 167 1044 650 c 0
 1044 1083 847 1290 599 1290 c 0
EndSplineSet
Substitution2: "'ss02' Style Set 2 lookup 6-1" zero.alt
EndChar

StartChar: one
Encoding: 49 49 64
Width: 1200
Flags: HMW
LayerCount: 2
Fore
SplineSet
180 0 m 1
 180 30 l 1
 637 30 l 1
 637 1271 l 1
 175 1060 l 5
 160 1090 l 1
 659 1318 l 1
 672 1307 l 1
 672 30 l 1
 1080 30 l 1
 1080 0 l 1
 180 0 l 1
EndSplineSet
Substitution2: "'ss02' Style Set 2 lookup 6-1" one.alt
EndChar

StartChar: two
Encoding: 50 50 65
Width: 1200
Flags: HMW
LayerCount: 2
Fore
SplineSet
110 929 m 1
 180 1139 362 1320 638 1320 c 0
 847 1320 983 1191 983 1020 c 0
 983 818 740.12890625 669.858398438 590 568 c 4
 397.388671875 437.318359375 165 185 125 30 c 1
 999 30 l 1
 999 0 l 1
 109 0 l 1
 90 20 l 1
 130 193 369.446289062 455.815429688 571 592 c 0
 719 692 948 835 948 1015 c 0
 948 1188 829 1290 628 1290 c 0
 376 1290 206 1112 136 919 c 1
 110 929 l 1
EndSplineSet
EndChar

StartChar: three
Encoding: 51 51 66
Width: 1200
Flags: HMW
LayerCount: 2
Fore
SplineSet
562 730 m 2
 739.423133134 792.804648897 966 897 966 1060 c 0
 966 1163 860 1290 622 1290 c 1
 622 1320 l 1
 878 1320 1001 1186 1001 1060 c 0
 1001 879 788 800 702 757 c 1
 864 786 1071 675 1071 470 c 4
 1071 164 729 -73 182 -233 c 1
 173 -203 l 1
 691 -49 1036 177 1036 470 c 0
 1036 663 828.396484375 781.525390625 623 716 c 2
 460 661 l 1
 449 690 l 1
 562 730 l 2
184 1035 m 1
 153 1049 l 1
 223 1189 406 1320 622 1320 c 1
 622 1290 l 1
 424 1290 247 1166 184 1035 c 1
EndSplineSet
EndChar

StartChar: four
Encoding: 52 52 67
Width: 1200
Flags: HMW
LayerCount: 2
Fore
SplineSet
844 -220 m 1
 894 610 l 1
 929 610 l 1
 879 -220 l 1
 844 -220 l 1
49 130 m 1
 1110 130 l 1
 1110 100 l 1
 20 100 l 1
 0 120 l 1
 290 480 510 850 590 1360 c 1
 625 1360 l 1
 545 850 339 490 49 130 c 1
EndSplineSet
EndChar

StartChar: five
Encoding: 53 53 68
Width: 1200
Flags: HMW
LayerCount: 2
Fore
SplineSet
724 845 m 1
 957 844 1091 725 1091 510 c 0
 1091 154 679 -110 172 -220 c 1
 166 -190 l 1
 654 -80 1056 167 1056 510 c 0
 1056 693 932 815 724 815 c 1
 724 845 l 1
300 1300 m 1
 1040 1300 l 1
 1040 1270 l 1
 300 1270 l 1
 300 1300 l 1
165 564 m 1
 300 1300 l 1
 330 1300 l 1
 197 563 l 5
 185 555 l 1
 305 715 510 845 724 845 c 1
 724 815 l 1
 520 815 325 687 205 534 c 1
 165 564 l 1
EndSplineSet
EndChar

StartChar: six
Encoding: 54 54 69
Width: 1200
VWidth: 2310
Flags: HMW
LayerCount: 2
Back
SplineSet
649 -20 m 4
 323 -20 150 214 150 650 c 4
 150 1076 342 1320 649 1320 c 4
 956 1320 1149 1076 1149 650 c 4
 1149 214 975 -20 649 -20 c 4
649 1180 m 4
 461 1180 310 1003 310 650 c 4
 310 287 441 120 649 120 c 4
 857 120 989 287 989 650 c 4
 989 1003 837 1180 649 1180 c 4
EndSplineSet
Fore
SplineSet
824 1490 m 5
 489 1298 142 957 145 530 c 5
 130 530 l 5
 131 704 370 900 652 900 c 4
 874 900 1130 760 1130 440 c 4
 1130 160 900 -20 618 -20 c 4
 316 -20 120 190 120 530 c 4
 120 1032 516 1340 813 1520 c 5
 824 1490 l 5
1100 440 m 4
 1100 741 860 870 652 870 c 4
 386 870 155 690 155 530 c 4
 155 192 340 10 618 10 c 4
 876 10 1100 172 1100 440 c 4
EndSplineSet
EndChar

StartChar: seven
Encoding: 55 55 70
Width: 1200
Flags: HMW
LayerCount: 2
Fore
SplineSet
1120 1300 m 1
 1130 1280 l 1
 840 920 530 290 460 -220 c 1
 430 -216 l 1
 507 294 794 910 1084 1270 c 5
 169 1270 l 1
 119 860 l 1
 100 860 l 1
 140 1300 l 1
 1120 1300 l 1
EndSplineSet
EndChar

StartChar: eight
Encoding: 56 56 71
Width: 1200
Flags: HMW
LayerCount: 2
Fore
SplineSet
594 721 m 0
 358 721 176 835 176 1011 c 4
 176 1217 377 1321 594 1321 c 0
 811 1321 1024 1217 1024 1011 c 4
 1024 825 830 721 594 721 c 0
594 1291 m 0
 396 1291 211 1194 211 1011 c 4
 211 858 366 751 594 751 c 0
 822 751 989 848 989 1011 c 4
 989 1194 802 1291 594 1291 c 0
594 -20 m 0
 318 -20 96 114 96 360 c 0
 96 606 337 741 594 741 c 0
 851 741 1094 606 1094 360 c 0
 1094 114 870 -20 594 -20 c 0
594 711 m 0
 356 711 131 593 131 360 c 0
 131 127 356 10 594 10 c 0
 832 10 1059 127 1059 360 c 0
 1059 593 832 711 594 711 c 0
EndSplineSet
EndChar

StartChar: hyphen
Encoding: 45 45 73
Width: 1200
Flags: HMW
LayerCount: 2
Fore
SplineSet
269 690 m 5
 931 690 l 5
 931 660 l 1
 269 660 l 1
 269 690 l 5
EndSplineSet
EndChar

StartChar: plus
Encoding: 43 43 74
Width: 1200
Flags: HMW
LayerCount: 2
Fore
SplineSet
582 1030 m 1
 618 1030 l 5
 618 320 l 5
 582 320 l 1
 582 1030 l 1
229 690 m 1
 971 690 l 1
 971 660 l 1
 229 660 l 1
 229 690 l 1
EndSplineSet
EndChar

StartChar: equal
Encoding: 61 61 75
Width: 1200
Flags: HMW
LayerCount: 2
Fore
SplineSet
229 860 m 5
 971 860 l 5
 971 830 l 1
 229 830 l 1
 229 860 l 5
229 520 m 5
 971 520 l 5
 971 490 l 1
 229 490 l 1
 229 520 l 5
EndSplineSet
EndChar

StartChar: colon
Encoding: 58 58 76
Width: 1200
VWidth: 2379
Flags: MW
LayerCount: 2
Fore
SplineSet
451 790 m 4
 451 878 512 940 600 940 c 4
 688 940 749 878 749 790 c 4
 749 702 693 640 605 640 c 4
 517 640 451 702 451 790 c 4
451 130 m 0
 451 218 512 280 600 280 c 0
 688 280 749 218 749 130 c 0
 749 42 693 -20 605 -20 c 0
 517 -20 451 42 451 130 c 0
EndSplineSet
EndChar

StartChar: semicolon
Encoding: 59 59 77
Width: 1200
VWidth: 2379
Flags: MW
LayerCount: 2
Fore
SplineSet
460 -320 m 5
 500 290 l 5
 710 290 l 5
 580 -320 l 5
 460 -320 l 5
451 790 m 0
 451 878 512 940 600 940 c 0
 688 940 749 878 749 790 c 0
 749 702 693 640 605 640 c 0
 517 640 451 702 451 790 c 0
EndSplineSet
EndChar

StartChar: less
Encoding: 60 60 78
Width: 1200
Flags: HMW
LayerCount: 2
Fore
SplineSet
229 690 m 1
 931 1060 l 1
 941 1030 l 1
 260 675 l 1
 941 320 l 1
 931 290 l 1
 229 660 l 5
 229 690 l 1
EndSplineSet
EndChar

StartChar: slash
Encoding: 47 47 79
Width: 1200
Flags: HMW
LayerCount: 2
Fore
SplineSet
814 1350 m 1
 844 1340 l 5
 326 -160 l 1
 296 -150 l 1
 814 1350 l 1
EndSplineSet
EndChar

StartChar: greater
Encoding: 62 62 80
Width: 1200
Flags: HMW
LayerCount: 2
Fore
SplineSet
971 690 m 5
 971 660 l 1
 269 290 l 1
 259 320 l 1
 940 675 l 1
 259 1030 l 1
 269 1060 l 1
 971 690 l 5
EndSplineSet
EndChar

StartChar: numbersign
Encoding: 35 35 81
Width: 1200
Flags: HMW
LayerCount: 2
Fore
SplineSet
99 905 m 1
 1191 905 l 1
 1191 875 l 1
 99 875 l 1
 99 905 l 1
39 475 m 5
 1131 475 l 5
 1131 445 l 5
 39 445 l 5
 39 475 l 5
980 1310 m 1
 1013 1303 l 1
 703 3 l 1
 670 10 l 1
 980 1310 l 1
510 1310 m 1
 543 1303 l 1
 233 3 l 1
 200 10 l 1
 510 1310 l 1
EndSplineSet
EndChar

StartChar: dollar
Encoding: 36 36 82
Width: 1200
Flags: HMW
LayerCount: 2
Fore
SplineSet
590 0 m 1
 600 -260 l 5
 560 -260 l 1
 570 0 l 1
 590 0 l 1
570 1310 m 1
 560 1560 l 1
 600 1560 l 1
 590 1310 l 1
 570 1310 l 1
1014 1071 m 1
 886 1207 742 1290 574 1290 c 0
 373 1290 194 1183 194 1010 c 0
 194 780 484.598622819 741.945242656 641 683 c 0
 840 608 1089 533 1089 310 c 0
 1089 100 852 -29 620 -29 c 0
 393 -29 202 71 52 221 c 1
 80 244 l 1
 210 105 407 1 620 1 c 0
 832 1 1054 121 1054 310 c 0
 1054 514 780.086914062 588.220703125 626 649 c 0
 446 720 159 758 159 1010 c 0
 159 1201 348 1320 574 1320 c 0
 750 1320 917 1229 1037 1089 c 1
 1014 1071 l 1
EndSplineSet
EndChar

StartChar: percent
Encoding: 37 37 83
Width: 1200
Flags: HMW
LayerCount: 2
Back
SplineSet
844 1350 m 5
 986 1300 l 5
 356 -50 l 5
 214 0 l 5
 844 1350 l 5
EndSplineSet
Fore
SplineSet
1029 280 m 0
 1029 443 942 550 814 550 c 0
 686 550 609 443 609 280 c 0
 609 107 696 10 824 10 c 0
 952 10 1029 107 1029 280 c 0
574 280 m 0
 574 456 657 580 814 580 c 0
 971 580 1064 456 1064 280 c 0
 1064 94 981 -20 824 -20 c 0
 667 -20 574 94 574 280 c 0
500 1020 m 0
 500 1133 434 1290 286 1290 c 4
 148 1290 81 1173 81 1020 c 0
 81 847 168 750 296 750 c 0
 434 750 500 877 500 1020 c 0
46 1020 m 0
 46 1196 129 1320 286 1320 c 0
 412 1320 519 1246 625 1246 c 0
 735 1246 822 1269 946 1407 c 1
 976 1390 l 1
 176 -80 l 1
 144 -70 l 1
 923 1366 l 1
 945 1367 l 1
 846 1258 758 1216 625 1216 c 0
 501 1216 431 1278 339 1294 c 1
 319 1304 l 1
 462 1277 536 1156 536 1010 c 0
 536 874 453 720 296 720 c 0
 139 720 46 834 46 1020 c 0
EndSplineSet
EndChar

StartChar: ampersand
Encoding: 38 38 84
Width: 1200
Flags: HMW
LayerCount: 2
Fore
SplineSet
529 690 m 1
 1091 690 l 1
 1091 660 l 1
 529 660 l 1
 529 690 l 1
878 670 m 1
 1018 254 854 -20 528 -20 c 5
 528 10 l 5
 806 10 993 247 843 670 c 1
 878 670 l 1
837 1135 m 1
 767 1218 666 1270 518 1270 c 1
 518 1300 l 1
 684 1300 777 1249 857 1159 c 1
 837 1135 l 1
618 690 m 1
 548 660 l 1
 280 660 124 523 124 350 c 0
 124 157 260 10 528 10 c 5
 528 -20 l 5
 241 -20 89 134 89 350 c 0
 89 555 285 673 457 677 c 1
 331 700 159 809 159 990 c 0
 159 1196 312 1300 518 1300 c 1
 518 1270 l 1
 330 1270 194 1163 194 990 c 0
 194 827 330 690 618 690 c 1
EndSplineSet
EndChar

StartChar: parenleft
Encoding: 40 40 85
Width: 1200
Flags: HMW
LayerCount: 2
Fore
SplineSet
862 1420 m 1
 877 1390 l 5
 552 1230 458 990 458 649 c 0
 458 308 552 65 877 -100 c 1
 862 -130 l 1
 527 25 276 228 276 649 c 0
 276 1070 527 1270 862 1420 c 1
EndSplineSet
EndChar

StartChar: parenright
Encoding: 41 41 86
Width: 1200
Flags: HMW
LayerCount: 2
Fore
SplineSet
338 -130 m 1
 323 -100 l 5
 648 60 742 300 742 641 c 0
 742 982 648 1225 323 1390 c 1
 338 1420 l 1
 673 1265 924 1062 924 641 c 0
 924 220 673 20 338 -130 c 1
EndSplineSet
EndChar

StartChar: question
Encoding: 63 63 87
Width: 1200
Flags: HMW
LayerCount: 2
Back
SplineSet
244 939 m 5
 123 999 l 5
 223 1149 426 1320 722 1320 c 5
 692 1180 l 5
 524 1180 356 1082 244 939 c 5
451 130 m 4
 451 218 512 280 600 280 c 4
 688 280 749 218 749 130 c 4
 749 42 693 -20 605 -20 c 4
 517 -20 451 42 451 130 c 4
881 1020 m 4
 881 1123 810 1180 692 1180 c 5
 722 1320 l 5
 948 1320 1071 1216 1071 1070 c 4
 1071 915.77137963 976.126953125 790.510742188 793.54296875 674 c 4
 712.013097151 621.974046667 634.638671875 586.1484375 591.28125 431.115234375 c 5
 471 481.65234375 l 5
 512.307617188 655.767578125 639.733936517 725.953175998 711.538085938 776 c 4
 829.920898438 858.51171875 881 939.761454432 881 1020 c 4
EndSplineSet
Fore
SplineSet
145 988 m 1
 123 999 l 1
 223 1149 446 1320 742 1320 c 1
 734 1290 l 1
 466 1290 247 1131 145 988 c 1
451 130 m 0
 451 218 512 280 600 280 c 0
 688 280 749 218 749 130 c 0
 749 42 693 -20 605 -20 c 0
 517 -20 451 42 451 130 c 0
1036 1060 m 4
 1036 1213 942 1290 734 1290 c 1
 742 1320 l 1
 938 1320 1071 1236 1071 1060 c 0
 1071 886 908.297851562 817.256835938 794 719 c 0
 703.875539683 641.523965321 624 546 591 431 c 1
 562 445 l 1
 583 559 681.084871791 672.417199551 776 750 c 0
 891 844 1036 910 1036 1060 c 4
EndSplineSet
EndChar

StartChar: at
Encoding: 64 64 88
Width: 1200
VWidth: 0
Flags: HMW
LayerCount: 2
Fore
SplineSet
60 530 m 0
 60 938 312 1320 720 1320 c 0
 1048 1320 1130 1098 1130 810 c 0
 1130 548 1042 300 872 300 c 4
 740 300 773 446 793 578 c 1
 834 696 l 1
 794 458 646 320 526 320 c 0
 420 320 320 386 320 554 c 0
 320 832 637 998 877 998 c 1
 887 991 l 1
 828 578 l 2
 812 466 771 330 872 330 c 4
 1012 330 1095 563 1095 815 c 0
 1095 1071 1040 1290 725 1290 c 0
 329 1290 94 911 94 535 c 0
 94 219 209 10 575 10 c 0
 685 10 865 50 967 124 c 1
 982 100 l 1
 882 28 708 -20 570 -20 c 0
 192 -20 60 202 60 530 c 0
809 696 m 2
 856 972 l 1
 622 951 355 806 355 554 c 0
 355 402 436 350 526 350 c 0
 622 350 770.010716336 467.041653378 809 696 c 2
EndSplineSet
EndChar

StartChar: bracketleft
Encoding: 91 91 89
Width: 1200
Flags: HMW
LayerCount: 2
Fore
SplineSet
279 -51 m 1
 279 1350 l 1
 921 1350 l 1
 921 1310 l 1
 461 1310 l 1
 461 -11 l 5
 921 -11 l 5
 921 -51 l 1
 279 -51 l 1
EndSplineSet
EndChar

StartChar: backslash
Encoding: 92 92 90
Width: 1200
Flags: HMW
LayerCount: 2
Fore
SplineSet
386 1350 m 1
 904 -150 l 5
 874 -160 l 1
 356 1340 l 1
 386 1350 l 1
EndSplineSet
EndChar

StartChar: bracketright
Encoding: 93 93 91
Width: 1200
Flags: HMW
LayerCount: 2
Fore
SplineSet
921 1350 m 1
 921 -51 l 1
 279 -51 l 1
 279 -11 l 5
 739 -11 l 5
 739 1310 l 1
 279 1310 l 1
 279 1350 l 1
 921 1350 l 1
EndSplineSet
EndChar

StartChar: braceleft
Encoding: 123 123 92
Width: 1200
VWidth: 0
Flags: HMW
LayerCount: 2
Fore
SplineSet
590 1110 m 2
 620 974 l 2
 657.489173025 804.049082285 552 714 384 664 c 1
 384 684 l 1
 542 634 645.523587653 558.411182295 620 384 c 2
 590 179 l 2
 569.634245777 39.8340128127 596 -21 716 -21 c 2
 966 -21 l 1
 966 -51 l 1
 726 -51 l 2
 548 -51 394.043668122 -15.672489083 420 179 c 2
 450 404 l 2
 469.930131004 553.475982533 474 660 304 660 c 6
 234 660 l 1
 234 690 l 1
 304 690 l 6
 474 690 476.632696092 796.632414956 450 944 c 2
 420 1110 l 2
 385.316980602 1301.91270734 548 1350 726 1350 c 2
 966 1350 l 1
 966 1320 l 1
 716 1320 l 2
 586 1320 557.979995875 1255.15735203 590 1110 c 2
EndSplineSet
EndChar

StartChar: grave
Encoding: 96 96 93
Width: 1200
VWidth: 2048
Flags: HMW
LayerCount: 2
Back
SplineSet
758 1095 m 5
 658 1025 l 5
 420 1291 l 5
 594 1391 l 5
 758 1095 l 5
EndSplineSet
Fore
SplineSet
718 1070 m 5
 701 1056 l 5
 497 1338 l 5
 526 1358 l 5
 718 1070 l 5
EndSplineSet
EndChar

StartChar: asciicircum
Encoding: 94 94 94
Width: 1200
VWidth: 2048
Flags: HMW
LayerCount: 2
Fore
SplineSet
174 771 m 1
 142 801 l 1
 592 1300 l 1
 619 1300 l 1
 1058 801 l 1
 1027 771 l 1
 592 1270 l 1
 619 1270 l 1
 174 771 l 1
EndSplineSet
EndChar

StartChar: underscore
Encoding: 95 95 95
Width: 1200
Flags: HMW
LayerCount: 2
Fore
SplineSet
219 0 m 1
 981 0 l 1
 981 -30 l 5
 219 -30 l 5
 219 0 l 1
EndSplineSet
EndChar

StartChar: bar
Encoding: 124 124 96
Width: 1200
Flags: HMW
LayerCount: 2
Fore
SplineSet
583 1300 m 5
 617 1300 l 1
 617 -330 l 1
 583 -330 l 5
 583 1300 l 5
EndSplineSet
EndChar

StartChar: braceright
Encoding: 125 125 97
Width: 1200
VWidth: 0
Flags: HMW
LayerCount: 2
Fore
SplineSet
610 189 m 2
 580 325 l 2
 542.510742188 494.951171875 648 585 816 635 c 1
 816 615 l 1
 658 665 554.4765625 740.588867188 580 915 c 2
 610 1120 l 2
 630.366210938 1259.16601562 604 1320 484 1320 c 2
 234 1320 l 1
 234 1350 l 1
 474 1350 l 2
 652 1350 805.956054688 1314.67285156 780 1120 c 2
 750 895 l 2
 730.0703125 745.524414062 726 639 896 639 c 2
 966 639 l 1
 966 609 l 1
 896 609 l 2
 726 609 723.3671875 502.3671875 750 355 c 2
 780 189 l 2
 814.682617188 -2.9130859375 652 -51 474 -51 c 2
 234 -51 l 1
 234 -21 l 1
 484 -21 l 2
 614 -21 642.01953125 43.8427734375 610 189 c 2
EndSplineSet
EndChar

StartChar: asciitilde
Encoding: 126 126 99
Width: 1200
VWidth: 2048
Flags: HMW
LayerCount: 2
Back
SplineSet
977 761 m 4
 977 660.094726562 911.005859375 578 811 578 c 4
 719.5 578 658.50390625 627.1328125 600 675 c 4
 541.49609375 722.8671875 480.5 772 389 772 c 4
 288.994140625 772 223 689.905273438 223 589 c 1028
EndSplineSet
Fore
SplineSet
205.5 589 m 5
 205.5 694.33984375 275.538085938 787 389 787 c 4
 488.55859375 787 554.017578125 733.358398438 612.083007812 685.850585938 c 4
 671.025390625 637.625 727.55859375 593 811 593 c 4
 897.548828125 593 959.5 664.529296875 959.5 761 c 5
 994.5 761 l 5
 994.5 655.66015625 924.462890625 563 811 563 c 4
 711.44140625 563 645.982421875 616.641601562 587.916992188 664.149414062 c 4
 528.974609375 712.375 472.44140625 757 389 757 c 4
 302.450195312 757 240.5 685.471679688 240.5 589 c 5
 205.5 589 l 5
EndSplineSet
EndChar

StartChar: cent
Encoding: 162 162 101
Width: 1200
Flags: HMW
LayerCount: 2
Fore
SplineSet
1038 797 m 1
 1020 777 l 1
 947 857 797 910 660 910 c 1
 660 940 l 1
 816 940 958 880 1038 797 c 1
650 0 m 1
 660 -260 l 5
 620 -260 l 1
 630 0 l 1
 650 0 l 1
630 930 m 1
 620 1180 l 1
 660 1180 l 1
 650 930 l 1
 630 930 l 1
660 910 m 1
 377 910 170 723 170 430 c 0
 170 187 336 10 644 10 c 1
 644 -20 l 1
 313 -20 135 164 135 430 c 0
 135 736 348 940 660 940 c 1
 660 910 l 1
1042 103 m 1
 962 30 780 -20 644 -20 c 1
 644 10 l 1
 771 10 954 59 1024 123 c 1
 1042 103 l 1
EndSplineSet
EndChar

StartChar: sterling
Encoding: 163 163 103
Width: 1200
Flags: HMW
LayerCount: 2
Fore
SplineSet
99 690 m 1
 751 690 l 1
 751 660 l 1
 99 660 l 1
 99 690 l 1
1070 950 m 1
 1038 950 l 1
 1016 1154 879 1290 661 1290 c 0
 413 1290 287 1102 286 870 c 1
 286 620 355 280 235 30 c 5
 1079 30 l 1
 1079 0 l 1
 110 0 l 1
 110 30 l 1
 200 30 l 1
 320 280 251 620 251 870 c 1
 251 1125 395 1320 661 1320 c 0
 907 1320 1060 1156 1070 950 c 1
EndSplineSet
EndChar

StartChar: currency
Encoding: 164 164 104
Width: 1200
Flags: HMW
LayerCount: 2
Fore
SplineSet
905 163 m 1
 1081 14 l 5
 1043 -24 l 1
 894 152 l 1
 905 163 l 1
283 757 m 1
 107 906 l 1
 145 944 l 1
 294 768 l 1
 283 757 l 1
894 769 m 1
 1043 944 l 1
 1081 907 l 1
 905 758 l 1
 894 769 l 1
294 152 m 1
 145 -24 l 1
 108 14 l 1
 283 163 l 1
 294 152 l 1
594 20 m 0
 348 20 166 174 166 460 c 0
 166 736 367 900 594 900 c 0
 821 900 1034 736 1034 460 c 0
 1034 174 850 20 594 20 c 0
594 870 m 0
 376 870 201 703 201 460 c 0
 201 207 356 50 594 50 c 0
 842 50 999 207 999 460 c 0
 999 703 822 870 594 870 c 0
EndSplineSet
EndChar

StartChar: yen
Encoding: 165 165 105
Width: 1200
Flags: HMW
LayerCount: 2
Back
SplineSet
30 1300 m 5
 508 1300 l 5
 508 1170 l 5
 30 1170 l 5
 30 1300 l 5
710 1300 m 5
 1170 1300 l 5
 1170 1170 l 5
 710 1170 l 5
 710 1300 l 5
510 0 m 5
 510 480 l 5
 87 1300 l 5
 254 1300 l 5
 619 570 l 5
 570 570 l 5
 948 1300 l 5
 1115 1300 l 5
 679 480 l 5
 679 0 l 5
 510 0 l 5
510 450 m 5
 210 440 l 5
 210 590 l 5
 510 550 l 5
 510 450 l 5
510 210 m 5
 210 170 l 5
 210 320 l 5
 510 310 l 5
 510 210 l 5
679 310 m 5
 979 320 l 5
 979 170 l 5
 679 210 l 5
 679 310 l 5
679 550 m 5
 979 590 l 5
 979 440 l 5
 679 450 l 5
 679 550 l 5
EndSplineSet
Fore
SplineSet
30 1300 m 1
 508 1300 l 1
 508 1270 l 1
 30 1270 l 1
 30 1300 l 1
710 1300 m 1
 1170 1300 l 1
 1170 1270 l 1
 710 1270 l 1
 710 1300 l 1
577 0 m 1
 577 600 l 1
 157 1300 l 1
 197 1300 l 1
 609 605 l 1
 580 605 l 1
 1005 1300 l 1
 1045 1300 l 1
 612 600 l 1
 612 0 l 1
 577 0 l 1
590 530 m 1
 210 520 l 1
 210 560 l 1
 590 550 l 1
 590 530 l 1
590 240 m 1
 210 230 l 1
 210 270 l 1
 590 260 l 5
 590 240 l 1
599 260 m 5
 979 270 l 1
 979 230 l 1
 599 240 l 1
 599 260 l 5
599 550 m 1
 979 560 l 1
 979 520 l 1
 599 530 l 1
 599 550 l 1
EndSplineSet
EndChar

StartChar: brokenbar
Encoding: 166 166 106
Width: 1200
Flags: HMW
LayerCount: 2
Back
SplineSet
515.5 1300 m 5
 684.5 1300 l 5
 684.5 -330 l 5
 515.5 -330 l 5
 515.5 1300 l 5
EndSplineSet
Fore
SplineSet
583 350 m 1
 617 350 l 1
 617 -330 l 1
 583 -330 l 1
 583 350 l 1
583 1300 m 1
 617 1300 l 1
 617 620 l 1
 583 620 l 1
 583 1300 l 1
EndSplineSet
EndChar

StartChar: section
Encoding: 167 167 107
Width: 1200
Flags: HMW
LayerCount: 2
Fore
SplineSet
989 1159 m 1
 970 1139 l 1
 890 1212 757 1280 589 1280 c 0
 338 1280 220 1184 220 1050 c 0
 220 876 493.059570312 820.198242188 630 779 c 0
 866 708 1025 664 1025 486 c 0
 1025 276 828 171 606 171 c 1
 606 186 l 1
 808 186 990 307 990 486 c 4
 990 642 847.884813957 681.567543056 621 750 c 0
 443.571289062 803.515625 185 854 185 1050 c 0
 185 1196 313 1310 589 1310 c 0
 785 1310 917 1229 989 1159 c 1
609 760 m 1
 368 760 210 664 210 510 c 0
 210 316 461.0078125 237.036132812 620 196 c 0
 853.786132812 135.659179688 1025 84 1025 -94 c 0
 1025 -304 828 -399 606 -399 c 0
 389 -399 206 -323 106 -219 c 1
 127 -197 l 1
 228 -295 404 -369 606 -369 c 0
 808 -369 990 -283 990 -94 c 0
 990 82 786.884765625 119.567382812 610 167 c 0
 431 215 175 294 175 510 c 0
 175 666 333 785 609 785 c 1
 609 760 l 1
EndSplineSet
EndChar

StartChar: dieresis
Encoding: 168 168 108
Width: 1200
VWidth: 2379
Flags: HMW
LayerCount: 2
Fore
SplineSet
776 1307 m 0
 776 1335 792 1352 820 1352 c 0
 848 1352 865 1335 865 1307 c 0
 865 1279 849 1262 821 1262 c 0
 793 1262 776 1279 776 1307 c 0
336 1307 m 0
 336 1335 352 1352 380 1352 c 0
 408 1352 425 1335 425 1307 c 0
 425 1279 409 1262 381 1262 c 0
 353 1262 336 1279 336 1307 c 0
EndSplineSet
EndChar

StartChar: ordfeminine
Encoding: 170 170 109
Width: 1200
Flags: HMW
LayerCount: 2
Fore
SplineSet
883 1104 m 2
 883 656 l 1
 848 656 l 9
 848 1104 l 2
 848 1199 777 1291 640 1291 c 0
 517 1291 406 1229 330 1175 c 1
 312 1202 l 1
 396 1269 523 1321 640 1321 c 0
 806 1321 883 1214 883 1104 c 2
300 817 m 0
 300 722 372 679 464 679 c 0
 611 679 766 762 856 846 c 5
 871 820 l 5
 780 739 625 649 464 649 c 0
 354 649 265 715 265 817 c 0
 265 994 596 1019 850 1076 c 1
 860 1045 l 1
 625 992 300 968 300 817 c 0
EndSplineSet
EndChar

StartChar: copyright
Encoding: 169 169 110
Width: 1200
Flags: HMW
LayerCount: 2
Fore
SplineSet
853 576 m 1
 823 561 l 1
 798 638 718 716 619 716 c 1
 619 746 l 1
 738 746 837 644 853 576 c 1
619 716 m 1
 444 716 356 605 356 459 c 0
 356 323 444 214 607 214 c 1
 607 184 l 1
 415 184 321 313 321 459 c 0
 321 633 431 746 619 746 c 1
 619 716 l 1
866 330 m 1
 820 269 732 184 607 184 c 1
 607 214 l 5
 722 214 807 300 842 350 c 5
 866 330 l 1
594 -20 m 0
 318 -20 96 144 96 460 c 0
 96 766 337 940 594 940 c 0
 851 940 1104 766 1104 460 c 0
 1104 144 870 -20 594 -20 c 0
594 910 m 0
 356 910 131 753 131 460 c 0
 131 157 336 10 594 10 c 0
 852 10 1069 157 1069 460 c 0
 1069 753 832 910 594 910 c 0
EndSplineSet
EndChar

StartChar: registered
Encoding: 174 174 111
Width: 1200
Flags: HMW
LayerCount: 2
Fore
SplineSet
642 416 m 1
 799 205 l 1
 772 186 l 1
 612 416 l 1
 642 416 l 1
402 196 m 1
 402 714 l 1
 607 714 l 2
 747 714 828 671 828 552 c 0
 828 440 733.7890625 396 607 396 c 2
 432 396 l 1
 432 196 l 1
 402 196 l 1
432 426 m 1
 607 426 l 2
 709.87890625 426 793 446 793 552 c 4
 793 655 733.872070312 684 607 684 c 2
 432 684 l 1
 432 426 l 1
594 -20 m 0
 318 -20 96 144 96 460 c 0
 96 766 337 940 594 940 c 0
 851 940 1104 766 1104 460 c 0
 1104 144 870 -20 594 -20 c 0
594 910 m 0
 356 910 131 763 131 460 c 0
 131 167 336 10 594 10 c 0
 852 10 1069 167 1069 460 c 0
 1069 763 832 910 594 910 c 0
EndSplineSet
EndChar

StartChar: logicalnot
Encoding: 172 172 113
Width: 1200
Flags: HMW
LayerCount: 2
Fore
SplineSet
269 690 m 1
 881 690 l 1
 881 430 l 1
 851 430 l 5
 851 660 l 5
 269 660 l 1
 269 690 l 1
EndSplineSet
EndChar

StartChar: guillemotleft
Encoding: 171 171 114
Width: 1200
Flags: HMW
LayerCount: 2
Fore
SplineSet
589 525 m 1
 921 920 l 1
 941 900 l 1
 639 525 l 1
 941 150 l 1
 921 130 l 1
 589 525 l 1
189 525 m 5
 521 920 l 5
 541 900 l 5
 239 525 l 5
 541 150 l 5
 521 130 l 5
 189 525 l 5
EndSplineSet
EndChar

StartChar: ordmasculine
Encoding: 186 186 115
Width: 1200
Flags: HMW
LayerCount: 2
Fore
SplineSet
596 648 m 0
 403 648 268 763 268 984 c 0
 268 1198 416 1320 596 1320 c 4
 776 1320 932 1198 932 984 c 4
 932 763 789 648 596 648 c 0
596 1290 m 4
 438 1290 303 1183 303 984 c 4
 303 778 424 678 596 678 c 4
 768 678 897 778 897 984 c 4
 897 1183 754 1290 596 1290 c 4
EndSplineSet
EndChar

StartChar: degree
Encoding: 176 176 116
Width: 1200
Flags: HMW
LayerCount: 2
Fore
SplineSet
596 848 m 0
 443 848 348 943 348 1084 c 0
 348 1218 456 1320 596 1320 c 0
 726 1320 842 1218 842 1084 c 0
 842 943 739 848 596 848 c 0
596 1290 m 4
 478 1290 383 1203 383 1084 c 0
 383 958 474 878 596 878 c 4
 718 878 807 958 807 1084 c 0
 807 1203 714 1290 596 1290 c 4
EndSplineSet
EndChar

StartChar: acute
Encoding: 180 180 117
Width: 1200
VWidth: 2048
Flags: HMW
LayerCount: 2
Fore
SplineSet
497 1070 m 1
 689 1358 l 1
 718 1338 l 1
 514 1056 l 1
 497 1070 l 1
EndSplineSet
EndChar

StartChar: plusminus
Encoding: 177 177 119
Width: 1200
Flags: HMW
LayerCount: 2
Fore
SplineSet
229 30 m 5
 971 30 l 5
 971 0 l 1
 229 0 l 1
 229 30 l 5
583 1030 m 1
 617 1030 l 1
 617 320 l 1
 583 320 l 1
 583 1030 l 1
229 690 m 1
 971 690 l 1
 971 660 l 1
 229 660 l 1
 229 690 l 1
EndSplineSet
EndChar

StartChar: cedilla
Encoding: 184 184 122
Width: 1200
VWidth: 0
Flags: HMW
LayerCount: 2
Fore
SplineSet
557 -490 m 256
 483 -490 415 -474 359 -434 c 257
 369 -409 l 257
 423 -449 485 -460 557 -460 c 256
 691 -460 806 -411 806 -302 c 256
 806 -204 685 -140 497 -230 c 261
 513 -176 l 257
 683 70 l 257
 720 70 l 257
 528 -204 l 257
 507 -224 l 257
 527 -184 615 -154 665 -154 c 256
 751 -154 841 -202 841 -302 c 256
 841 -430 711 -490 557 -490 c 256
EndSplineSet
EndChar

StartChar: periodcentered
Encoding: 183 183 123
Width: 1200
VWidth: 2379
Flags: MW
LayerCount: 2
Fore
SplineSet
488 676 m 4
 488 742 534 788 600 788 c 4
 666 788 712 742 712 676 c 4
 712 610 670 564 604 564 c 4
 538 564 488 610 488 676 c 4
EndSplineSet
EndChar

StartChar: paragraph
Encoding: 182 182 124
Width: 1200
Flags: HMW
LayerCount: 2
Fore
SplineSet
864 -210 m 1
 864 1280 l 1
 899 1280 l 5
 899 -210 l 5
 864 -210 l 1
584 -210 m 1
 584 530 l 1
 459 530 l 2
 292 530 100 664 100 910 c 0
 100 1166 273 1300 559 1300 c 2
 1121 1300 l 1
 1121 1265 l 1
 619 1275 l 1
 619 -210 l 1
 584 -210 l 1
EndSplineSet
EndChar

StartChar: mu
Encoding: 181 181 125
Width: 1200
Flags: HMW
LayerCount: 2
Fore
SplineSet
152 920 m 1
 187 920 l 1
 187 -400 l 1
 152 -400 l 1
 152 920 l 1
980 30 m 1
 1140 30 l 1
 1140 0 l 1
 980 0 l 1
 980 30 l 1
172 350 m 2
 172 920 l 1
 187 920 l 1
 187 340 l 2
 187 157 329 10 507 10 c 4
 755 10 945 267 945 530 c 2
 945 920 l 1
 980 920 l 1
 980 0 l 1
 960 0 l 5
 946 480 l 1
 965 530 l 5
 965 244 774 -20 507 -20 c 0
 315 -20 172 114 172 350 c 2
EndSplineSet
EndChar

StartChar: uni2071
Encoding: 8305 8305 126
Width: 1200
Flags: HMW
LayerCount: 2
Fore
SplineSet
282 610 m 1
 282 640 l 1
 637 640 l 1
 637 1270 l 1
 358 1270 l 1
 358 1300 l 1
 672 1300 l 5
 672 640 l 5
 928 640 l 1
 928 610 l 1
 282 610 l 1
EndSplineSet
EndChar

StartChar: uni2072
Encoding: 8306 8306 127
Width: 1200
Flags: HMW
LayerCount: 2
Fore
SplineSet
289 1125 m 1
 387 1261 517 1320 659 1320 c 0
 808 1320 909 1249 909 1135 c 4
 909 1013 733 955 596 896 c 0
 482 847 389 761 335 640 c 5
 898 640 l 1
 898 610 l 1
 308 610 l 1
 298 622 l 1
 340 737 418.31640625 857.234375 586 927 c 0
 723 984 873 1038 873 1135 c 4
 873 1217 801 1290 659 1290 c 0
 531 1290 402 1233 309 1108 c 1
 289 1125 l 1
EndSplineSet
EndChar

StartChar: uni2070
Encoding: 8304 8304 128
Width: 1200
Flags: HMW
LayerCount: 2
Fore
SplineSet
596 590 m 0
 363 590 218 735 218 956 c 0
 218 1170 376 1320 596 1320 c 0
 816 1320 982 1170 982 956 c 0
 982 735 829 590 596 590 c 0
596 1290 m 0
 398 1290 253 1155 253 956 c 0
 253 750 384 620 596 620 c 0
 808 620 947 750 947 956 c 0
 947 1155 794 1290 596 1290 c 0
EndSplineSet
EndChar

StartChar: uni2073
Encoding: 8307 8307 129
Width: 1200
Flags: HMW
LayerCount: 2
Fore
SplineSet
316 1172 m 1
 296 1192 l 1
 354 1259 494 1321 613 1321 c 0
 768 1321 877 1253 877 1147 c 0
 877 1046 735 1006 667 986 c 5
 735 976 917 930 917 799 c 0
 917 673 798 590 593 590 c 0
 424 590 314 677 266 744 c 1
 289 763 l 1
 338 706 442 620 593 620 c 0
 779 620 882 697 882 799 c 0
 882 907 698 967 601 967 c 2
 459 967 l 1
 459 997 l 1
 561 997 l 2
 658 997 842 1059 842 1147 c 0
 842 1229 749 1291 613 1291 c 0
 502 1291 375 1230 316 1172 c 1
EndSplineSet
EndChar

StartChar: uni2074
Encoding: 8308 8308 130
Width: 1200
Flags: HMW
LayerCount: 2
Fore
SplineSet
753 610 m 1
 753 1085 l 1
 788 1110 l 1
 788 610 l 1
 753 610 l 1
324 850 m 5
 1010 850 l 1
 1010 820 l 1
 300 820 l 1
 281 850 l 1
 704 1360 l 1
 749 1360 l 1
 324 850 l 5
EndSplineSet
EndChar

StartChar: uni2075
Encoding: 8309 8309 131
Width: 1200
Flags: HMW
LayerCount: 2
Fore
SplineSet
867 1300 m 1
 867 1270 l 1
 360 1270 l 1
 350 994 l 1
 603 994 l 2
 813 994 917 950 917 829 c 0
 917 683 798 590 593 590 c 0
 424 590 314 677 266 744 c 1
 291 762 l 1
 340 705 432 620 593 620 c 0
 779 620 882 697 882 829 c 0
 882 927 788 964 601 964 c 2
 340 964 l 5
 320 984 l 1
 330 1300 l 1
 867 1300 l 1
EndSplineSet
EndChar

StartChar: uni2076
Encoding: 8310 8310 132
Width: 1200
VWidth: 2310
Flags: HMW
LayerCount: 2
Fore
SplineSet
906 1265 m 5
 554 1325 281 1218 281 873 c 5
 261 873 l 5
 261 966 476 1030 658 1030 c 4
 824 1030 1004 1005 1004 845 c 4
 1004 685 832 590 620 590 c 4
 394 590 246 708 246 903 c 4
 246 1219 531 1360 916 1300 c 5
 906 1265 l 5
969 845 m 4
 969 976 814 1000 658 1000 c 4
 508 1000 281 933 281 873 c 4
 281 745 406 620 620 620 c 4
 811 620 969 707 969 845 c 4
EndSplineSet
EndChar

StartChar: uni2077
Encoding: 8311 8311 133
Width: 1200
Flags: HMW
LayerCount: 2
Fore
SplineSet
974 1300 m 1
 986 1278 l 1
 778 1118 613 862 561 580 c 1
 531 590 l 1
 591 872 729 1110 937 1270 c 1
 293 1270 l 5
 250 1050 l 1
 231 1050 l 1
 261 1300 l 1
 974 1300 l 1
EndSplineSet
EndChar

StartChar: uni2079
Encoding: 8313 8313 134
Width: 1200
VWidth: 2310
Flags: HMW
LayerCount: 2
Fore
SplineSet
344 645 m 1
 696 585 969 692 969 1037 c 1
 989 1037 l 1
 989 944 774 880 592 880 c 0
 426 880 246 905 246 1065 c 0
 246 1225 418 1320 630 1320 c 0
 856 1320 1004 1202 1004 1007 c 0
 1004 691 719 550 334 610 c 1
 344 645 l 1
281 1065 m 0
 281 934 436 910 592 910 c 0
 742 910 969 977 969 1037 c 0
 969 1165 844 1290 630 1290 c 0
 439 1290 281 1203 281 1065 c 0
EndSplineSet
EndChar

StartChar: uni2078
Encoding: 8312 8312 135
Width: 1200
Flags: HMW
LayerCount: 2
Fore
SplineSet
595 978 m 0
 368 978 280 1036 280 1140 c 0
 280 1252 382 1320 595 1320 c 0
 808 1320 917 1252 917 1140 c 0
 917 1028 822 978 595 978 c 0
595 1290 m 0
 399 1290 315 1240 315 1140 c 0
 315 1045 449 995 595 995 c 0
 749 995 882 1038 882 1140 c 0
 882 1240 799 1290 595 1290 c 0
595 590 m 0
 338 590 220 656 220 800 c 0
 220 934 352 982 595 982 c 0
 838 982 970 934 970 800 c 0
 970 656 852 590 595 590 c 0
595 965 m 0
 429 965 255 920 255 800 c 4
 255 673 354 620 595 620 c 0
 826 620 935 673 935 800 c 4
 935 920 761 965 595 965 c 0
EndSplineSet
EndChar

StartChar: fraction
Encoding: 8260 8260 146
Width: 1200
VWidth: 2048
Flags: HMW
LayerCount: 2
Fore
SplineSet
980 1300 m 1
 255 130 l 5
 220 130 l 1
 945 1300 l 1
 980 1300 l 1
EndSplineSet
EndChar

StartChar: onequarter
Encoding: 188 188 147
Width: 1200
Flags: HMW
LayerCount: 2
Fore
SplineSet
99 640 m 5
 1101 640 l 5
 1101 610 l 1
 99 610 l 1
 99 640 l 5
EndSplineSet
Refer: 126 8305 N 1 0 0 1 0 300 2
Refer: 130 8308 N 1 0 0 1 0 -1010 2
EndChar

StartChar: threequarters
Encoding: 190 190 148
Width: 1200
Flags: HMW
LayerCount: 2
Fore
SplineSet
99 640 m 5
 1101 640 l 5
 1101 610 l 1
 99 610 l 1
 99 640 l 5
EndSplineSet
Refer: 129 8307 N 1 0 0 1 0 300 2
Refer: 130 8308 N 1 0 0 1 0 -1010 2
EndChar

StartChar: onehalf
Encoding: 189 189 149
Width: 1200
Flags: HMW
LayerCount: 2
Fore
SplineSet
99 640 m 1
 1101 640 l 1
 1101 610 l 5
 99 610 l 5
 99 640 l 1
EndSplineSet
Refer: 126 8305 N 1 0 0 1 0 300 2
Refer: 127 8306 N 1 0 0 1 0 -1010 2
EndChar

StartChar: multiply
Encoding: 215 215 152
Width: 1200
Flags: HMW
LayerCount: 2
Fore
SplineSet
338 915 m 5
 360 937 l 1
 862 435 l 1
 840 413 l 5
 338 915 l 5
327 424 m 1
 851 948 l 1
 873 926 l 1
 349 402 l 1
 327 424 l 1
EndSplineSet
EndChar

StartChar: divide
Encoding: 247 247 154
Width: 1200
Flags: HMW
LayerCount: 2
Fore
SplineSet
229 690 m 5
 971 690 l 5
 971 660 l 1
 229 660 l 1
 229 690 l 5
EndSplineSet
Refer: 59 46 N 0.75 0 0 0.75 150 852 2
Refer: 59 46 N 0.75 0 0 0.75 150 302 2
EndChar

StartChar: dotlessi
Encoding: 305 305 155
Width: 1200
Flags: HMW
AnchorPoint: "Anchor-2" 597 0 basechar 0
AnchorPoint: "Anchor-0" 596 920 basechar 0
LayerCount: 2
Fore
SplineSet
200 0 m 5
 200 30 l 5
 631 30 l 5
 631 890 l 5
 260 890 l 5
 260 920 l 5
 667 920 l 5
 667 30 l 5
 1100 30 l 5
 1100 0 l 5
 200 0 l 5
EndSplineSet
EndChar

StartChar: AE
Encoding: 198 198 156
Width: 1200
Flags: HMW
LayerCount: 2
Fore
SplineSet
131 1300 m 1
 480 1300 l 1
 480 1275 l 1
 131 1265 l 1
 131 1300 l 1
7 -20 m 1
 -33 -20 l 1
 480 1300 l 1
 694 1300 l 1
 504 1272 l 1
 7 -20 l 1
189 500 m 1
 612 500 l 1
 612 470 l 1
 189 470 l 1
 189 500 l 1
1011 693 m 5
 1011 660 l 1
 625 665 l 1
 625 30 l 1
 1108 30 l 1
 1121 450 l 1
 1140 450 l 1
 1140 0 l 1
 450 0 l 1
 450 30 l 1
 590 30 l 1
 590 1300 l 1
 1100 1300 l 1
 1140 900 l 1
 1121 900 l 1
 1071 1270 l 1
 625 1270 l 1
 625 688 l 1
 1011 693 l 5
EndSplineSet
Substitution2: "'c2sc' Capitals to Small Capitals in Latin lookup 0 subtable" ae.sc
EndChar

StartChar: ij
Encoding: 307 307 157
Width: 1200
Flags: HMW
LayerCount: 2
Fore
SplineSet
330 1335 m 0
 330 1368 351 1380 374 1380 c 0
 407 1380 419 1368 419 1335 c 0
 419 1302 402 1290 379 1290 c 4
 351 1290 330 1302 330 1335 c 0
80 0 m 1
 80 30 l 1
 354 30 l 1
 354 890 l 1
 90 890 l 1
 90 920 l 1
 389 920 l 1
 389 30 l 1
 680 30 l 1
 680 0 l 1
 80 0 l 1
600 -400 m 1
 600 -430 l 1
 413 -430 290 -331 215 -231 c 1
 238 -212 l 1
 310 -292 432 -400 600 -400 c 1
880 1335 m 0
 880 1368 901 1380 924 1380 c 4
 957 1380 969 1368 969 1335 c 0
 969 1302 952 1290 929 1290 c 4
 902 1290 880 1302 880 1335 c 0
1009 920 m 1
 1010 10 l 2
 1010 -236 907 -430 600 -430 c 1
 600 -400 l 1
 888 -400 975 -213 975 10 c 2
 975 890 l 1
 650 890 l 1
 650 920 l 1
 1009 920 l 1
EndSplineSet
Substitution2: "'smcp' Lowercase to Small Capitals in Latin lookup 0 subtable" ij.sc
EndChar

StartChar: IJ
Encoding: 306 306 158
Width: 1200
Flags: HMW
LayerCount: 2
Fore
SplineSet
90 0 m 1
 90 30 l 1
 315 30 l 1
 315 1270 l 1
 100 1270 l 1
 100 1300 l 1
 560 1300 l 1
 560 1270 l 1
 345 1270 l 1
 345 30 l 1
 570 30 l 1
 570 0 l 1
 90 0 l 1
687 10 m 5
 925 10 1008.7107147 187.000344387 1009 430 c 6
 1010 1270 l 1
 681 1270 l 1
 681 1300 l 1
 1040 1300 l 1
 1039 430 l 2
 1039 174 955 -20 689 -20 c 1
 687 10 l 5
EndSplineSet
Substitution2: "'c2sc' Capitals to Small Capitals in Latin lookup 0 subtable" ij.sc
EndChar

StartChar: uni0237
Encoding: 567 567 159
Width: 1200
Flags: HMW
AnchorPoint: "Anchor-0" 596 920 basechar 0
LayerCount: 2
Fore
SplineSet
500 -400 m 5
 500 -430 l 5
 313 -430 190 -331 115 -231 c 5
 139 -210 l 5
 221 -312 332 -400 500 -400 c 5
909 920 m 5
 909 10 l 6
 909 -236 807 -430 500 -430 c 5
 500 -400 l 5
 798 -400 874 -203 874 10 c 6
 874 890 l 5
 320 890 l 5
 320 920 l 5
 909 920 l 5
EndSplineSet
EndChar

StartChar: ae
Encoding: 230 230 160
Width: 1200
Flags: HMW
LayerCount: 2
Fore
SplineSet
616 630 m 2
 626 175 l 1
 597 140 l 9
 597 610 l 2
 597 763 604 910 446 910 c 0
 338 910 250 854 155 751 c 1
 136 770 l 1
 246 896 339 940 446 940 c 0
 633 940 616 787 616 630 c 2
113 200 m 0
 113 94 188 10 317 10 c 0
 445 10 558 107 638 230 c 1
 657 220 l 1
 587 84 464 -20 317 -20 c 0
 161 -20 78 74 78 200 c 0
 78 423 353 508 606 619 c 1
 608 589 l 1
 382 484 113 404 113 200 c 0
1121 79 m 1
 1061 23 990 -20 894 -20 c 1
 894 10 l 1
 991 10 1052 61 1101 99 c 1
 1121 79 l 1
894 -20 m 1
 638 -20 606 194 606 480 c 0
 606 756 672 940 889 940 c 0
 1056 940 1109 785 1109 602 c 0
 1109 534 1098 487 1082 437 c 1
 623 407 l 1
 623 427 l 1
 1063 472 l 1
 1106 722 1049 910 889 910 c 4
 701 910 636 763 636 480 c 0
 636 237 656 10 894 10 c 1
 894 -20 l 1
EndSplineSet
Substitution2: "'smcp' Lowercase to Small Capitals in Latin lookup 0 subtable" ae.sc
EndChar

StartChar: dagger
Encoding: 8224 8224 176
Width: 1200
Flags: HMW
LayerCount: 2
Fore
SplineSet
582 1300 m 1
 618 1300 l 1
 618 0 l 1
 582 0 l 1
 582 1300 l 1
119 1000 m 1
 1081 1000 l 1
 1081 970 l 5
 119 970 l 5
 119 1000 l 1
EndSplineSet
EndChar

StartChar: daggerdbl
Encoding: 8225 8225 177
Width: 1200
Flags: HMW
LayerCount: 2
Fore
SplineSet
119 330 m 5
 1081 330 l 5
 1081 300 l 1
 119 300 l 1
 119 330 l 5
583 1300 m 1
 617 1300 l 1
 617 0 l 1
 583 0 l 1
 583 1300 l 1
119 1000 m 1
 1081 1000 l 1
 1081 970 l 1
 119 970 l 1
 119 1000 l 1
EndSplineSet
EndChar

StartChar: Thorn
Encoding: 222 222 178
Width: 1200
Flags: HMW
LayerCount: 2
Fore
SplineSet
100 0 m 1
 100 30 l 1
 310 30 l 1
 310 1270 l 1
 100 1270 l 1
 100 1300 l 1
 345 1300 l 5
 345 1050 l 5
 682 1050 l 2
 968 1050 1121 926 1121 690 c 0
 1121 464 949 340 682 340 c 2
 345 340 l 5
 345 30 l 5
 669 30 l 1
 669 0 l 1
 100 0 l 1
345 370 m 5
 682 370 l 2
 930 370 1086 477 1086 690 c 0
 1086 903 950 1020 682 1020 c 2
 345 1020 l 5
 345 370 l 5
EndSplineSet
EndChar

StartChar: germandbls
Encoding: 223 223 179
Width: 1200
Flags: HMW
LayerCount: 2
Fore
SplineSet
70 0 m 1
 70 30 l 1
 250 30 l 1
 249 1000 l 2
 249 1246 302 1440 609 1440 c 1
 609 1410 l 1
 321 1410 284 1213 284 1000 c 2
 284 30 l 1
 500 30 l 1
 500 0 l 1
 70 0 l 1
609 1440 m 1
 827 1440 927 1341 927 1199 c 0
 927 1062 803.006596678 994.800643488 735 965 c 0
 646 926 578 873 578 797 c 0
 578 709 731.921875 661.83203125 831 636 c 0
 987.726550356 595.137648734 1119 532 1119 346 c 0
 1119 151 999 1 781 1 c 0
 727 1 646 11 580 43 c 1
 590 73 l 1
 651 38 743 31 781 31 c 0
 981 31 1084 175 1084 346 c 0
 1084 519 974.247122596 565.707216322 821 609 c 0
 715.473632812 638.811523438 548 685 548 797 c 0
 548 894 625.463935316 944.313370549 715 989 c 0
 782.868904094 1022.87274814 892 1073 892 1199 c 0
 892 1317 812 1410 609 1410 c 1
 609 1440 l 1
EndSplineSet
Substitution2: "'smcp' Lowercase to Small Capitals in Latin lookup 0 subtable" germandbls.sc
EndChar

StartChar: quotedblright
Encoding: 8221 8221 182
Width: 1200
Flags: MW
LayerCount: 2
Fore
SplineSet
720 730 m 5
 760 1340 l 5
 970 1340 l 5
 840 730 l 5
 720 730 l 5
260 730 m 5
 300 1340 l 5
 510 1340 l 5
 380 730 l 5
 260 730 l 5
EndSplineSet
EndChar

StartChar: quotereversed
Encoding: 8219 8219 187
Width: 1200
Flags: MW
LayerCount: 2
Fore
SplineSet
740 690 m 5
 620 690 l 5
 490 1300 l 5
 700 1300 l 5
 740 690 l 5
EndSplineSet
EndChar

StartChar: guilsinglleft
Encoding: 8249 8249 189
Width: 1200
Flags: HMW
LayerCount: 2
Fore
SplineSet
459 525 m 1
 791 920 l 1
 811 900 l 1
 509 525 l 1
 811 150 l 1
 791 130 l 1
 459 525 l 1
EndSplineSet
EndChar

StartChar: perthousand
Encoding: 8240 8240 194
Width: 1200
Flags: HMW
LayerCount: 2
Fore
SplineSet
1119 230 m 0
 1119 363 1067 450 959 450 c 4
 861 450 794 353 794 230 c 0
 794 117 871 10 969 10 c 4
 1087 10 1119 97 1119 230 c 0
769 230 m 0
 769 386 842 480 959 480 c 4
 1096 480 1154 376 1154 230 c 0
 1154 74 1106 -20 969 -20 c 4
 852 -20 769 74 769 230 c 0
754 230 m 0
 754 353 682 450 584 450 c 0
 466 450 429 343 429 230 c 0
 429 117 476 10 594 10 c 0
 702 10 754 117 754 230 c 0
394 230 m 0
 394 376 457 480 584 480 c 0
 711 480 779 386 779 230 c 0
 779 74 721 -20 594 -20 c 0
 467 -20 394 74 394 230 c 0
501 1070 m 0
 501 1193 404 1290 286 1290 c 0
 168 1290 81 1193 81 1070 c 0
 81 927 188 850 296 850 c 0
 404 850 501 937 501 1070 c 0
46 1070 m 0
 46 1216 139 1320 286 1320 c 0
 412 1320 519 1246 675 1246 c 0
 805 1246 962 1292 1066 1380 c 1
 1096 1350 l 1
 57 118 l 1
 34 140 l 1
 1066 1360 l 1
 1056 1332 l 1
 977 1273 848 1216 675 1216 c 0
 551 1216 441 1266 379 1284 c 1
 411 1281 l 1
 444 1254 536 1206 536 1070 c 0
 536 924 433 820 296 820 c 0
 159 820 46 914 46 1070 c 0
EndSplineSet
EndChar

StartChar: uni203D
Encoding: 8253 8253 195
Width: 1200
Flags: HMW
LayerCount: 2
Fore
SplineSet
143 989 m 1
 123 999 l 1
 223 1149 446 1320 742 1320 c 1
 742 1290 l 1
 464 1290 255 1132 143 989 c 1
451 130 m 0
 451 218 512 280 600 280 c 0
 688 280 749 218 749 130 c 0
 749 42 693 -20 605 -20 c 0
 517 -20 451 42 451 130 c 0
1036 1060 m 0
 1036 1223 940 1290 742 1290 c 1
 742 1320 l 1
 968 1320 1071 1236 1071 1060 c 0
 1071 896 936 761 794 669 c 0
 682.707979663 596.895310768 639 566 596 461 c 5
 586 481 l 5
 617 585 682.251135699 635.62476319 784 704 c 0
 909 788 1036 910 1036 1060 c 0
590 430 m 1
 490 980 l 1
 710 1040 l 1
 610 430 l 1
 590 430 l 1
EndSplineSet
EndChar

StartChar: dotbelowcomb
Encoding: 803 803 197
Width: 1200
VWidth: 2379
Flags: HMW
AnchorPoint: "Anchor-3" -600 0 mark 0
LayerCount: 2
Fore
SplineSet
-644 -285 m 0
 -644 -257 -628 -240 -600 -240 c 0
 -572 -240 -555 -257 -555 -285 c 0
 -555 -313 -571 -330 -599 -330 c 0
 -627 -330 -644 -313 -644 -285 c 0
EndSplineSet
EndChar

StartChar: uni02BC
Encoding: 700 700 198
Width: 1200
Flags: HMW
AnchorPoint: "Anchor-1" 206 920 mark 0
LayerCount: 2
Fore
SplineSet
470 726 m 1
 510 1336 l 1
 550 1336 l 5
 490 726 l 1
 470 726 l 1
EndSplineSet
EndChar

StartChar: circumflex
Encoding: 710 710 199
Width: 1200
VWidth: 2048
Flags: HMW
LayerCount: 2
Fore
SplineSet
343 1076 m 5
 316 1101 l 1
 606 1380 l 1
 884 1101 l 1
 859 1076 l 1
 596 1350 l 1
 616 1350 l 1
 343 1076 l 5
EndSplineSet
EndChar

StartChar: caron
Encoding: 711 711 200
Width: 1200
VWidth: 2048
Flags: HMW
LayerCount: 2
Fore
SplineSet
857 1315 m 5
 884 1290 l 1
 594 1011 l 1
 316 1290 l 1
 341 1315 l 1
 604 1041 l 1
 584 1041 l 1
 857 1315 l 5
EndSplineSet
EndChar

StartChar: uni02C9
Encoding: 713 713 201
Width: 1200
Flags: HMW
LayerCount: 2
Fore
SplineSet
349 1220 m 1
 851 1220 l 1
 851 1190 l 5
 349 1190 l 5
 349 1220 l 1
EndSplineSet
EndChar

StartChar: uni02CA
Encoding: 714 714 202
Width: 1200
VWidth: 2048
Flags: HMW
LayerCount: 2
Fore
SplineSet
527 1070 m 1
 719 1358 l 1
 748 1338 l 1
 544 1056 l 1
 527 1070 l 1
EndSplineSet
EndChar

StartChar: breve
Encoding: 728 728 203
Width: 1200
VWidth: 0
Flags: HMW
LayerCount: 2
Fore
SplineSet
354 1310 m 257
 384 1300 l 257
 374 1168 430 1060 600 1060 c 256
 769 1060 826 1168 816 1300 c 261
 846 1310 l 261
 856 1142 790 1030 600 1030 c 256
 410 1030 344 1142 354 1310 c 257
EndSplineSet
EndChar

StartChar: dotaccent
Encoding: 729 729 204
Width: 1200
VWidth: 2379
Flags: HMW
LayerCount: 2
Fore
SplineSet
556 1307 m 0
 556 1335 572 1352 600 1352 c 0
 628 1352 645 1335 645 1307 c 0
 645 1279 629 1262 601 1262 c 0
 573 1262 556 1279 556 1307 c 0
EndSplineSet
EndChar

StartChar: ring
Encoding: 730 730 205
Width: 1200
VWidth: 0
Flags: HMW
LayerCount: 2
Fore
SplineSet
396 1250 m 256
 396 1370 496 1450 600 1450 c 256
 704 1450 804 1370 804 1250 c 256
 804 1130 704 1050 600 1050 c 256
 496 1050 396 1130 396 1250 c 256
431 1250 m 260
 431 1144 510 1080 600 1080 c 256
 690 1080 769 1144 769 1250 c 260
 769 1356 690 1420 600 1420 c 256
 510 1420 431 1356 431 1250 c 260
EndSplineSet
EndChar

StartChar: ogonek
Encoding: 731 731 206
Width: 1200
VWidth: 0
Flags: HMW
LayerCount: 2
Fore
SplineSet
827 -340 m 261
 841 -360 l 257
 791 -400 721 -440 615 -440 c 256
 477 -440 389 -358 389 -240 c 256
 389 -122 513 -22 673 50 c 257
 679 34 l 257
 545 -20 424 -126 424 -240 c 256
 424 -342 495 -410 615 -410 c 256
 717 -410 789 -366 827 -340 c 261
EndSplineSet
EndChar

StartChar: tilde
Encoding: 732 732 207
Width: 1200
VWidth: 0
Flags: HMW
LayerCount: 2
Fore
SplineSet
298 1100 m 1
 298 1268 337 1338 439 1338 c 0
 526 1338 563.304374043 1283.42942717 611 1226 c 4
 660 1167 695 1104 761 1104 c 0
 839 1104 872 1159 872 1312 c 1
 902 1312 l 1
 902 1143 863 1074 761 1074 c 0
 674 1074 636.4296875 1148.3046875 589 1206 c 4
 540.296419239 1265.2449257 505 1308 439 1308 c 0
 361 1308 328 1253 328 1100 c 1
 298 1100 l 1
EndSplineSet
EndChar

StartChar: hungarumlaut
Encoding: 733 733 208
Width: 1200
VWidth: 2048
Flags: HMW
LayerCount: 2
Fore
SplineSet
717 1070 m 1
 909 1358 l 1
 938 1338 l 1
 734 1056 l 1
 717 1070 l 1
327 1070 m 1
 519 1358 l 1
 548 1338 l 1
 344 1056 l 1
 327 1070 l 1
EndSplineSet
EndChar

StartChar: uni02CB
Encoding: 715 715 209
Width: 1200
VWidth: 2048
Flags: HMW
LayerCount: 2
Fore
SplineSet
688 1070 m 1
 671 1056 l 1
 467 1338 l 1
 496 1358 l 1
 688 1070 l 1
EndSplineSet
EndChar

StartChar: gravecomb
Encoding: 768 768 210
Width: 1200
VWidth: 2048
Flags: HMW
AnchorPoint: "Anchor-0" -604 920 mark 0
LayerCount: 2
Fore
SplineSet
-512 1070 m 1
 -529 1056 l 1
 -733 1338 l 1
 -704 1358 l 1
 -512 1070 l 1
EndSplineSet
EndChar

StartChar: acutecomb
Encoding: 769 769 211
Width: 1200
VWidth: 2048
Flags: HMW
AnchorPoint: "Anchor-0" -604 920 mark 0
LayerCount: 2
Fore
SplineSet
-673 1070 m 1
 -481 1358 l 1
 -452 1338 l 1
 -656 1056 l 1
 -673 1070 l 1
EndSplineSet
EndChar

StartChar: tildecomb
Encoding: 771 771 212
Width: 1200
VWidth: 0
Flags: HMW
AnchorPoint: "Anchor-0" -604 920 mark 0
LayerCount: 2
Fore
SplineSet
-902 1100 m 1
 -902 1268 -863 1338 -761 1338 c 0
 -674 1338 -636.6953125 1283.4296875 -589 1226 c 0
 -540 1167 -505 1104 -439 1104 c 0
 -361 1104 -328 1159 -328 1312 c 1
 -298 1312 l 1
 -298 1143 -337 1074 -439 1074 c 0
 -526 1074 -563.5703125 1148.3046875 -611 1206 c 0
 -659.703125 1265.24511719 -695 1308 -761 1308 c 0
 -839 1308 -872 1253 -872 1100 c 1
 -902 1100 l 1
EndSplineSet
EndChar

StartChar: uni0302
Encoding: 770 770 213
Width: 1200
VWidth: 2048
Flags: HMW
AnchorPoint: "Anchor-0" -604 920 mark 0
LayerCount: 2
Fore
SplineSet
-857 1076 m 1
 -884 1101 l 1
 -594 1380 l 1
 -316 1101 l 1
 -341 1076 l 1
 -604 1350 l 1
 -584 1350 l 1
 -857 1076 l 1
EndSplineSet
EndChar

StartChar: uni0304
Encoding: 772 772 214
Width: 1200
Flags: HMW
AnchorPoint: "Anchor-0" -604 920 mark 0
LayerCount: 2
Fore
SplineSet
-851 1170 m 5
 -349 1170 l 5
 -349 1140 l 5
 -851 1140 l 5
 -851 1170 l 5
EndSplineSet
EndChar

StartChar: uni0306
Encoding: 774 774 215
Width: 1200
VWidth: 0
Flags: HMW
AnchorPoint: "Anchor-0" -604 920 mark 0
LayerCount: 2
Fore
SplineSet
-850 1340 m 257
 -820 1330 l 257
 -830 1198 -774 1090 -604 1090 c 256
 -435 1090 -378 1198 -388 1330 c 257
 -358 1340 l 257
 -348 1172 -414 1060 -604 1060 c 256
 -794 1060 -860 1172 -850 1340 c 257
EndSplineSet
EndChar

StartChar: uni0307
Encoding: 775 775 216
Width: 1200
VWidth: 2379
Flags: HMW
AnchorPoint: "Anchor-0" -604 920 mark 0
LayerCount: 2
Fore
SplineSet
-644 1157 m 0
 -644 1185 -628 1202 -600 1202 c 0
 -572 1202 -555 1185 -555 1157 c 0
 -555 1129 -571 1112 -599 1112 c 0
 -627 1112 -644 1129 -644 1157 c 0
EndSplineSet
EndChar

StartChar: uni0308
Encoding: 776 776 217
Width: 1200
VWidth: 2379
Flags: HMW
AnchorPoint: "Anchor-0" -604 920 mark 0
LayerCount: 2
Fore
SplineSet
-424 1127 m 4
 -424 1155 -408 1172 -380 1172 c 4
 -352 1172 -335 1155 -335 1127 c 4
 -335 1099 -351 1082 -379 1082 c 4
 -407 1082 -424 1099 -424 1127 c 4
-864 1127 m 4
 -864 1155 -848 1172 -820 1172 c 4
 -792 1172 -775 1155 -775 1127 c 4
 -775 1099 -791 1082 -819 1082 c 4
 -847 1082 -864 1099 -864 1127 c 4
EndSplineSet
EndChar

StartChar: uni030A
Encoding: 778 778 218
Width: 1200
VWidth: 0
Flags: HMW
AnchorPoint: "Anchor-0" -604 920 mark 0
LayerCount: 2
Fore
SplineSet
-804 1250 m 260
 -804 1370 -704 1450 -600 1450 c 260
 -496 1450 -396 1370 -396 1250 c 260
 -396 1130 -496 1050 -600 1050 c 260
 -704 1050 -804 1130 -804 1250 c 260
-769 1250 m 260
 -769 1144 -690 1080 -600 1080 c 260
 -510 1080 -431 1144 -431 1250 c 260
 -431 1356 -510 1420 -600 1420 c 260
 -690 1420 -769 1356 -769 1250 c 260
EndSplineSet
EndChar

StartChar: uni030B
Encoding: 779 779 219
Width: 1200
VWidth: 2048
Flags: HMW
AnchorPoint: "Anchor-0" -604 920 mark 0
LayerCount: 2
Fore
SplineSet
-483 1070 m 1
 -291 1358 l 1
 -262 1338 l 1
 -466 1056 l 1
 -483 1070 l 1
-873 1070 m 1
 -681 1358 l 1
 -652 1338 l 1
 -856 1056 l 1
 -873 1070 l 1
EndSplineSet
EndChar

StartChar: uni0312
Encoding: 786 786 220
Width: 1200
Flags: HMW
LayerCount: 2
Fore
SplineSet
-541 1264 m 1
 -571 806 l 1
 -609 806 l 5
 -561 1264 l 1
 -541 1264 l 1
EndSplineSet
EndChar

StartChar: uni0326
Encoding: 806 806 221
Width: 1200
Flags: HMW
AnchorPoint: "Anchor-3" -600 0 mark 0
LayerCount: 2
Fore
SplineSet
-649 -618 m 5
 -619 -160 l 5
 -569 -160 l 5
 -619 -618 l 5
 -649 -618 l 5
EndSplineSet
EndChar

StartChar: uni0328
Encoding: 808 808 222
Width: 1200
VWidth: 0
Flags: HMW
AnchorPoint: "Anchor-3" -550 0 mark 0
LayerCount: 2
Fore
SplineSet
-373 -340 m 257
 -359 -360 l 257
 -409 -400 -479 -440 -585 -440 c 256
 -723 -440 -811 -358 -811 -240 c 256
 -811 -122 -687 -56 -527 16 c 261
 -521 0 l 261
 -655 -54 -776 -126 -776 -240 c 256
 -776 -342 -705 -410 -585 -410 c 256
 -483 -410 -411 -366 -373 -340 c 257
EndSplineSet
EndChar

StartChar: uni0327
Encoding: 807 807 223
Width: 1200
VWidth: 0
Flags: HMW
AnchorPoint: "Anchor-3" -600 0 mark 0
LayerCount: 2
Fore
SplineSet
-633 -500 m 256
 -707 -500 -775 -484 -831 -444 c 257
 -821 -419 l 257
 -767 -459 -705 -470 -633 -470 c 256
 -499 -470 -384 -421 -384 -312 c 256
 -384 -214 -505 -150 -693 -240 c 257
 -677 -186 l 257
 -517 30 l 261
 -480 30 l 261
 -662 -214 l 257
 -683 -234 l 257
 -663 -194 -575 -164 -525 -164 c 256
 -439 -164 -349 -212 -349 -312 c 256
 -349 -440 -479 -500 -633 -500 c 256
EndSplineSet
EndChar

StartChar: thorn
Encoding: 254 254 274
Width: 1200
Flags: HMW
LayerCount: 2
Fore
SplineSet
664 10 m 4
 872 10 1064 177 1064 460 c 4
 1064 763 882 910 664 910 c 4
 416 910 287 713 287 460 c 4
 287 167 436 10 664 10 c 4
664 940 m 0
 900 940 1099 786 1099 460 c 0
 1099 144 881 -20 664 -20 c 0
 407 -20 267 144 267 460 c 0
 267 746 398 940 664 940 c 0
277 1330 m 1
 287 -300 l 1
 601 -300 l 1
 601 -330 l 1
 52 -330 l 1
 52 -300 l 1
 252 -300 l 1
 252 1300 l 1
 42 1300 l 1
 42 1330 l 1
 277 1330 l 1
EndSplineSet
EndChar

StartChar: eth
Encoding: 240 240 293
Width: 1200
VWidth: 0
Flags: HMW
LayerCount: 2
Fore
SplineSet
590 -20 m 256
 302 -20 114 180 114 460 c 256
 114 722 298 940 558 940 c 260
 828 940 1056 700 1056 460 c 257
 1041 460 l 257
 1041 710 846 1015 437 1431 c 257
 456 1450 l 257
 884 1022 1066 728 1066 460 c 256
 1066 180 878 -20 590 -20 c 256
590 10 m 256
 844 10 1031 182 1031 460 c 256
 1031 680 808 910 548 910 c 256
 318 910 149 690 149 460 c 256
 149 202 326 10 590 10 c 256
356 1075 m 257
 346 1100 l 257
 906 1314 l 257
 916 1289 l 257
 356 1075 l 257
EndSplineSet
Substitution2: "'smcp' Lowercase to Small Capitals in Latin lookup 0 subtable" eth.sc
EndChar

StartChar: Oslash
Encoding: 216 216 294
Width: 1200
Flags: HMW
LayerCount: 2
Fore
SplineSet
1001.5 1365 m 5
 1031.5 1355 l 1
 159.5 -55 l 1
 129.5 -45 l 1
 1001.5 1365 l 5
EndSplineSet
Refer: 14 79 N 1 0 0 1 0.5 0 2
Substitution2: "'c2sc' Capitals to Small Capitals in Latin lookup 0 subtable" oslash.sc
EndChar

StartChar: oslash
Encoding: 248 248 295
Width: 1200
Flags: HMW
LayerCount: 2
Fore
SplineSet
1061.5 945 m 1
 1081.5 925 l 1
 159.5 -55 l 5
 139.5 -35 l 1
 1061.5 945 l 1
EndSplineSet
Refer: 31 111 N 1 0 0 1 0 0 2
Substitution2: "'smcp' Lowercase to Small Capitals in Latin lookup 0 subtable" oslash.sc
EndChar

StartChar: dcroat
Encoding: 273 273 297
Width: 1200
Flags: HMW
LayerCount: 2
Fore
SplineSet
699 1160 m 5
 1201 1160 l 5
 1201 1130 l 5
 699 1130 l 5
 699 1160 l 5
596 910 m 4
 368 910 156 743 156 460 c 4
 156 167 348 10 586 10 c 4
 794 10 1023 187 1023 460 c 4
 1023 723 834 910 596 910 c 4
581 -20 m 4
 325 -20 121 154 121 460 c 4
 121 756 344 940 591 940 c 4
 848 940 1045 746 1045 460 c 4
 1045 164 807 -20 581 -20 c 4
1023 190 m 5
 1023 1330 l 5
 1058 1330 l 5
 1058 0 l 5
 1038 0 l 5
 1023 190 l 5
EndSplineSet
Substitution2: "'smcp' Lowercase to Small Capitals in Latin lookup 0 subtable" dcroat.sc
EndChar

StartChar: Hbar
Encoding: 294 294 318
Width: 1200
Flags: HMW
LayerCount: 2
Fore
SplineSet
945 660 m 5
 255 660 l 1
 255 30 l 1
 508 30 l 1
 508 0 l 1
 40 0 l 1
 40 30 l 1
 220 30 l 1
 220 1270 l 1
 40 1270 l 1
 40 1300 l 1
 508 1300 l 1
 508 1270 l 1
 255 1270 l 1
 255 690 l 1
 945 690 l 5
 945 1270 l 5
 692 1270 l 1
 692 1300 l 1
 1160 1300 l 1
 1160 1270 l 1
 980 1270 l 5
 980 30 l 5
 1160 30 l 1
 1160 0 l 1
 692 0 l 1
 692 30 l 1
 945 30 l 5
 945 660 l 5
39 970 m 1
 1161 970 l 1
 1161 940 l 1
 39 940 l 1
 39 970 l 1
EndSplineSet
Substitution2: "'c2sc' Capitals to Small Capitals in Latin lookup 0 subtable" hbar.sc
EndChar

StartChar: hbar
Encoding: 295 295 319
Width: 1200
Flags: HMW
LayerCount: 2
Fore
SplineSet
59 1160 m 1
 561 1160 l 1
 561 1130 l 5
 59 1130 l 5
 59 1160 l 1
EndSplineSet
Refer: 62 -1 N 1 0 0 1 0 0 2
Substitution2: "'smcp' Lowercase to Small Capitals in Latin lookup 0 subtable" hbar.sc
EndChar

StartChar: kgreenlandic
Encoding: 312 312 333
Width: 1200
Flags: HMW
AnchorPoint: "Anchor-2" 626 0 basechar 0
AnchorPoint: "Anchor-0" 636 920 basechar 0
LayerCount: 2
Fore
SplineSet
1155 0 m 1
 640 530 l 1
 670 550 l 1
 1210 0 l 1
 1155 0 l 1
1074 920 m 1
 1132 920 l 1
 295 220 l 1
 295 0 l 1
 260 0 l 1
 260 890 l 5
 30 890 l 5
 30 920 l 5
 295 920 l 5
 295 264 l 1
 1074 920 l 1
EndSplineSet
EndChar

StartChar: Lslash
Encoding: 321 321 342
Width: 1200
Flags: HMW
LayerCount: 2
Fore
SplineSet
65 705 m 261
 55 735 l 257
 615 975 l 257
 625 945 l 261
 65 705 l 261
EndSplineSet
Refer: 11 76 N 1 0 0 1 0 0 2
Substitution2: "'c2sc' Capitals to Small Capitals in Latin lookup 0 subtable" lslash.sc
EndChar

StartChar: lslash
Encoding: 322 322 343
Width: 1200
Flags: HMW
LayerCount: 2
Fore
SplineSet
314 706 m 261
 305 735 l 257
 865 975 l 257
 874 946 l 261
 314 706 l 261
EndSplineSet
Refer: 32 108 N 1 0 0 1 0 0 2
Substitution2: "'smcp' Lowercase to Small Capitals in Latin lookup 0 subtable" lslash.sc
EndChar

StartChar: Eng
Encoding: 330 330 351
Width: 1200
Flags: HMW
LayerCount: 2
Fore
SplineSet
988 0 m 1
 988 -246 941 -440 634 -440 c 1
 634 -405 l 5
 922 -405 953 -223 953 0 c 5
 988 0 l 1
250 1270 m 1
 40 1270 l 1
 40 1300 l 1
 250 1300 l 1
 250 1270 l 1
988 950 m 2
 988 0 l 1
 953 0 l 1
 953 960 l 2
 953 1183 846 1290 668 1290 c 0
 447 1290 285 1103 285 870 c 2
 285 0 l 1
 250 0 l 1
 250 1300 l 1
 275 1300 l 1
 285 980 l 1
 265 880 l 1
 265 1106 401 1320 678 1320 c 0
 855 1320 988 1216 988 950 c 2
EndSplineSet
Substitution2: "'c2sc' Capitals to Small Capitals in Latin lookup 0 subtable" eng.sc
EndChar

StartChar: eng
Encoding: 331 331 352
Width: 1200
Flags: HMW
LayerCount: 2
Fore
SplineSet
988 0 m 1
 988 -246 941 -440 634 -440 c 1
 634 -405 l 1
 922 -405 953 -223 953 0 c 1
 988 0 l 1
250 890 m 5
 40 890 l 5
 40 920 l 5
 250 920 l 5
 250 890 l 5
988 570 m 6
 988 0 l 1
 953 0 l 1
 953 580 l 6
 953 803 846 910 668 910 c 4
 447 910 285 723 285 490 c 6
 285 0 l 1
 250 0 l 1
 250 920 l 5
 275 920 l 5
 285 600 l 5
 265 500 l 5
 265 726 401 940 678 940 c 4
 855 940 988 836 988 570 c 6
EndSplineSet
Substitution2: "'smcp' Lowercase to Small Capitals in Latin lookup 0 subtable" eng.sc
EndChar

StartChar: OE
Encoding: 338 338 359
Width: 1200
Flags: HMW
LayerCount: 2
Fore
SplineSet
630 1300 m 1
 630 1270 l 1
 362 1270 135 1053 135 650 c 0
 135 227 342 30 630 30 c 1
 630 0 l 1
 314 0 100 214 100 650 c 0
 100 1076 333 1300 630 1300 c 1
1011 695 m 1
 1011 655 l 1
 665 665 l 1
 665 30 l 1
 1108 30 l 1
 1121 450 l 1
 1140 450 l 1
 1140 0 l 1
 630 0 l 1
 630 1300 l 1
 1100 1300 l 1
 1140 900 l 1
 1121 900 l 1
 1061 1270 l 5
 665 1270 l 1
 665 685 l 1
 1011 695 l 1
EndSplineSet
Substitution2: "'c2sc' Capitals to Small Capitals in Latin lookup 0 subtable" oe.sc
EndChar

StartChar: oe
Encoding: 339 339 360
Width: 1200
Flags: HMW
LayerCount: 2
Fore
SplineSet
379 -20 m 0
 173 -20 91 144 91 460 c 0
 91 766 192 940 379 940 c 0
 556 940 599 766 599 460 c 0
 599 144 575 -20 379 -20 c 0
379 910 m 0
 221 910 126 743 126 460 c 0
 126 157 201 10 379 10 c 0
 547 10 564 157 564 460 c 0
 564 743 527 910 379 910 c 0
1121 79 m 1
 1061 23 990 -20 894 -20 c 1
 894 10 l 1
 991 10 1056 61 1105 99 c 1
 1121 79 l 1
894 -20 m 1
 638 -20 577 194 577 480 c 0
 577 756 672 940 889 940 c 0
 1076 940 1109 785 1109 602 c 0
 1109 534 1098 487 1082 437 c 1
 593 407 l 5
 593 427 l 5
 1053 472 l 1
 1116 712 1049 910 889 910 c 0
 691 910 612 733 612 480 c 0
 612 197 666 10 894 10 c 1
 894 -20 l 1
EndSplineSet
Substitution2: "'smcp' Lowercase to Small Capitals in Latin lookup 0 subtable" oe.sc
EndChar

StartChar: Tbar
Encoding: 358 358 379
Width: 1200
Flags: HMW
LayerCount: 2
Fore
SplineSet
299 670 m 1
 901 670 l 1
 901 640 l 5
 299 640 l 5
 299 670 l 1
EndSplineSet
Refer: 19 84 N 1 0 0 1 0 0 2
Substitution2: "'c2sc' Capitals to Small Capitals in Latin lookup 0 subtable" tbar.sc
EndChar

StartChar: tbar
Encoding: 359 359 380
Width: 1200
Flags: HMW
LayerCount: 2
Fore
SplineSet
149 580 m 1
 871 580 l 1
 871 550 l 5
 149 550 l 5
 149 580 l 1
EndSplineSet
Refer: 41 116 N 1 0 0 1 0 0 2
Substitution2: "'smcp' Lowercase to Small Capitals in Latin lookup 0 subtable" tbar.sc
EndChar

StartChar: longs
Encoding: 383 383 404
Width: 1200
Flags: HMW
LayerCount: 2
Fore
SplineSet
839 1410 m 5
 839 1440 l 1
 1026 1440 1149 1371 1224 1301 c 1
 1200 1279 l 5
 1128 1343 1007 1410 839 1410 c 5
210 0 m 1
 210 30 l 1
 460 30 l 1
 460 890 l 1
 210 890 l 1
 210 920 l 1
 459 920 l 1
 459 1000 l 2
 459 1246 532 1440 839 1440 c 1
 839 1410 l 1
 561 1410 495 1223 495 1000 c 2
 495 30 l 1
 1000 30 l 1
 1000 0 l 1
 210 0 l 1
EndSplineSet
EndChar

StartChar: florin
Encoding: 402 402 405
Width: 1200
Flags: HMW
LayerCount: 2
Fore
SplineSet
290 -390 m 5
 290 -420 l 1
 103 -420 30 -321 -45 -221 c 1
 -17 -207 l 5
 55 -307 132 -390 290 -390 c 5
550 130 m 1
 551 20 l 2
 551 -226 517 -420 290 -420 c 1
 290 -390 l 1
 498 -390 520 -203 520 20 c 2
 520 130 l 1
 550 130 l 1
839 1410 m 1
 839 1440 l 1
 1026 1440 1149 1371 1224 1301 c 1
 1205 1277 l 1
 1153 1327 1017 1410 839 1410 c 1
520 130 m 1
 520 890 l 1
 260 890 l 1
 260 920 l 1
 519 920 l 1
 519 1000 l 2
 519 1246 532 1440 839 1440 c 1
 839 1410 l 1
 551 1410 550 1223 550 1000 c 2
 550 920 l 1
 1050 920 l 1
 1050 880 l 1
 550 890 l 1
 550 130 l 1
 520 130 l 1
EndSplineSet
EndChar

StartChar: uni0394
Encoding: 916 916 413
Width: 1200
Flags: HMW
LayerCount: 2
Fore
SplineSet
109 0 m 1
 67 0 l 1
 560 1300 l 1
 660 1300 l 5
 1133 0 l 1
 1091 0 l 1
 630 1270 l 1
 590 1270 l 1
 109 0 l 1
105 30 m 1
 1102 30 l 1
 1102 0 l 1
 105 0 l 1
 105 30 l 1
EndSplineSet
EndChar

StartChar: uni03A9
Encoding: 937 937 414
Width: 1200
Flags: HMW
LayerCount: 2
Fore
SplineSet
479 0 m 1
 79 0 l 1
 79 30 l 1
 385 30 l 1
 385 252.943359375 l 5
 306.8203125 317.110351562 100 465.473632812 100 750 c 4
 100 1126 302 1320 599 1320 c 0
 896 1320 1099 1126 1099 750 c 0
 1099 465.056640625 891.759765625 316.484375 813 252.3046875 c 1
 813 30 l 1
 1119 30 l 1
 1119 0 l 1
 779 0 l 1
 779 254.23046875 l 1
 867.828125 316.215820312 1064 485.116210938 1064 750 c 4
 1064 1113 877 1290 599 1290 c 0
 321 1290 135 1113 135 750 c 4
 135 485.3515625 330.662109375 316.502929688 418.999023438 254.455078125 c 1
 419 0.224609375 l 1
 479 0 l 1
EndSplineSet
EndChar

StartChar: pi
Encoding: 960 960 415
Width: 1200
VWidth: 0
Flags: HMW
LayerCount: 2
Fore
SplineSet
100 570 m 1
 100 920 l 1
 139 900 l 1
 119 570 l 1
 100 570 l 1
330 900 m 257
 365 900 l 257
 365 0 l 257
 330 0 l 257
 330 900 l 257
100 920 m 257
 1070 920 l 257
 1070 890 l 257
 100 890 l 257
 100 920 l 257
800 900 m 261
 835 900 l 261
 835 242 l 262
 835 60 876 12 1026 12 c 257
 1026 -18 l 257
 858 -18 800 24 800 242 c 262
 800 900 l 261
EndSplineSet
EndChar

StartChar: uni1E9E
Encoding: 7838 7838 426
Width: 1200
Flags: HMW
LayerCount: 2
Fore
SplineSet
70 0 m 1
 70 30 l 1
 240 30 l 1
 239 880 l 2
 239 1126 332 1320 639 1320 c 1
 639 1290 l 1
 341 1290 274 1093 274 880 c 2
 274 30 l 1
 500 30 l 1
 500 0 l 1
 70 0 l 1
639 1320 m 1
 867 1320 1007 1211 1087 1079 c 1
 632 695 l 1
 764.508789062 670.587890625 1119 617.982090256 1119 346 c 0
 1119 151 999 -19 781 -19 c 0
 727 -19 646 -9 580 23 c 1
 591 53 l 1
 652 17 743 11 781 11 c 4
 981 11 1084 175 1084 346 c 4
 1084 602.649414062 712.111328125 649.18359375 563 677 c 1
 1037 1079 l 1
 987 1177 852 1290 639 1290 c 1
 639 1320 l 1
EndSplineSet
Substitution2: "'c2sc' Capitals to Small Capitals in Latin lookup 0 subtable" germandbls.sc
EndChar

StartChar: Euro
Encoding: 8364 8364 429
Width: 1200
Flags: HMW
LayerCount: 2
Fore
SplineSet
250 730 m 1
 60 730 l 1
 60 765 l 1
 250 755 l 1
 250 730 l 1
250 515 m 1
 60 515 l 1
 60 550 l 1
 250 540 l 1
 250 515 l 1
259 540 m 5
 559 550 l 5
 559 515 l 5
 259 515 l 5
 259 540 l 5
259 755 m 5
 559 755 l 5
 559 720 l 5
 259 730 l 5
 259 755 l 5
720 1290 m 1
 720 1320 l 1
 960 1320 1091 1194 1091 1047 c 0
 1091 969 1085 910 1084 890 c 1
 1051 890 l 1
 1053 911 1061 967 1061 1047 c 0
 1061 1162 961 1290 720 1290 c 1
1099 360 m 1
 1128 350 l 1
 1078 154 946 -20 669 -20 c 0
 403 -20 230 214 230 650 c 0
 230 1076 433 1320 720 1320 c 1
 720 1290 l 1
 442 1290 265 1043 265 650 c 0
 265 237 421 10 669 10 c 0
 927 10 1049 186 1099 360 c 1
EndSplineSet
EndChar

StartChar: trademark
Encoding: 8482 8482 430
Width: 1200
Flags: HMW
LayerCount: 2
Fore
SplineSet
260 740 m 1
 260 1270 l 1
 38 1270 l 1
 38 1300 l 1
 519 1300 l 1
 519 1270 l 1
 297 1270 l 1
 297 740 l 1
 260 740 l 1
607 740 m 1
 607 1300 l 1
 665 1300 l 1
 873 910 l 1
 1081 1300 l 1
 1139 1300 l 1
 1139 740 l 1
 1104 740 l 1
 1104 1260 l 5
 893 870 l 1
 853 870 l 1
 642 1260 l 5
 642 740 l 1
 607 740 l 1
EndSplineSet
EndChar

StartChar: uni2150
Encoding: 8528 8528 431
Width: 1200
Flags: HMW
LayerCount: 2
Fore
SplineSet
99 640 m 1
 1101 640 l 1
 1101 610 l 5
 99 610 l 5
 99 640 l 1
EndSplineSet
Refer: 133 8311 N 1 0 0 1 0 -1010 2
Refer: 126 8305 N 1 0 0 1 0 300 2
EndChar

StartChar: uni2151
Encoding: 8529 8529 432
Width: 1200
Flags: HMW
LayerCount: 2
Fore
SplineSet
99 640 m 5
 1101 640 l 5
 1101 610 l 1
 99 610 l 1
 99 640 l 5
EndSplineSet
Refer: 134 8313 N 1 0 0 1 0 -1008 2
Refer: 126 8305 N 1 0 0 1 0 300 2
EndChar

StartChar: uni2152
Encoding: 8530 8530 433
Width: 1200
Flags: HMW
LayerCount: 2
Fore
SplineSet
112 290 m 5
 112 -400 l 5
 77 -400 l 1
 77 290 l 1
 112 290 l 5
99 640 m 1
 1101 640 l 1
 1101 610 l 1
 99 610 l 1
 99 640 l 1
EndSplineSet
Refer: 128 8304 N 1 0 0 1 150 -1010 2
Refer: 126 8305 N 1 0 0 1 0 300 2
EndChar

StartChar: onethird
Encoding: 8531 8531 434
Width: 1200
Flags: HMW
LayerCount: 2
Fore
SplineSet
99 640 m 5
 1101 640 l 5
 1101 610 l 1
 99 610 l 1
 99 640 l 5
EndSplineSet
Refer: 129 8307 N 1 0 0 1 0 -1009 2
Refer: 126 8305 N 1 0 0 1 0 300 2
EndChar

StartChar: uni2155
Encoding: 8533 8533 435
Width: 1200
Flags: HMW
LayerCount: 2
Fore
SplineSet
99 640 m 5
 1101 640 l 5
 1101 610 l 1
 99 610 l 1
 99 640 l 5
EndSplineSet
Refer: 131 8309 N 1 0 0 1 0 -1008 2
Refer: 126 8305 N 1 0 0 1 0 300 2
EndChar

StartChar: uni2159
Encoding: 8537 8537 436
Width: 1200
Flags: HMW
LayerCount: 2
Fore
SplineSet
99 640 m 5
 1101 640 l 5
 1101 610 l 1
 99 610 l 1
 99 640 l 5
EndSplineSet
Refer: 132 8310 N 1 0 0 1 0 -1010 2
Refer: 126 8305 N 1 0 0 1 0 300 2
EndChar

StartChar: oneeighth
Encoding: 8539 8539 437
Width: 1200
Flags: HMW
LayerCount: 2
Fore
SplineSet
99 640 m 5
 1101 640 l 5
 1101 610 l 1
 99 610 l 1
 99 640 l 5
EndSplineSet
Refer: 135 8312 N 1 0 0 1 0 -1010 2
Refer: 126 8305 N 1 0 0 1 0 300 2
EndChar

StartChar: twothirds
Encoding: 8532 8532 438
Width: 1200
Flags: HMW
LayerCount: 2
Fore
SplineSet
99 640 m 5
 1101 640 l 5
 1101 610 l 1
 99 610 l 1
 99 640 l 5
EndSplineSet
Refer: 127 8306 N 1 0 0 1 0 296 2
Refer: 129 8307 N 1 0 0 1 0 -1009 2
EndChar

StartChar: uni2156
Encoding: 8534 8534 439
Width: 1200
Flags: HMW
LayerCount: 2
Fore
SplineSet
99 640 m 5
 1101 640 l 5
 1101 610 l 1
 99 610 l 1
 99 640 l 5
EndSplineSet
Refer: 131 8309 N 1 0 0 1 0 -1008 2
Refer: 127 8306 N 1 0 0 1 0 296 2
EndChar

StartChar: uni2157
Encoding: 8535 8535 440
Width: 1200
Flags: HMW
LayerCount: 2
Fore
SplineSet
99 640 m 5
 1101 640 l 5
 1101 610 l 1
 99 610 l 1
 99 640 l 5
EndSplineSet
Refer: 129 8307 N 1 0 0 1 0 299 2
Refer: 131 8309 N 1 0 0 1 0 -1008 2
EndChar

StartChar: uni2158
Encoding: 8536 8536 441
Width: 1200
Flags: HMW
LayerCount: 2
Fore
SplineSet
99 640 m 5
 1101 640 l 5
 1101 610 l 1
 99 610 l 1
 99 640 l 5
EndSplineSet
Refer: 130 8308 N 1 0 0 1 0 300 2
Refer: 131 8309 N 1 0 0 1 0 -1008 2
EndChar

StartChar: uni215A
Encoding: 8538 8538 442
Width: 1200
Flags: HMW
LayerCount: 2
Fore
SplineSet
99 640 m 5
 1101 640 l 5
 1101 610 l 1
 99 610 l 1
 99 640 l 5
EndSplineSet
Refer: 131 8309 N 1 0 0 1 0 298 2
Refer: 132 8310 N 1 0 0 1 0 -1010 2
EndChar

StartChar: threeeighths
Encoding: 8540 8540 443
Width: 1200
Flags: HMW
LayerCount: 2
Fore
SplineSet
99 640 m 5
 1101 640 l 5
 1101 610 l 1
 99 610 l 1
 99 640 l 5
EndSplineSet
Refer: 129 8307 N 1 0 0 1 0 299 2
Refer: 135 8312 N 1 0 0 1 0 -1010 2
EndChar

StartChar: fiveeighths
Encoding: 8541 8541 444
Width: 1200
Flags: HMW
LayerCount: 2
Fore
SplineSet
99 640 m 5
 1101 640 l 5
 1101 610 l 1
 99 610 l 1
 99 640 l 5
EndSplineSet
Refer: 131 8309 N 1 0 0 1 0 300 2
Refer: 135 8312 N 1 0 0 1 0 -1010 2
EndChar

StartChar: seveneighths
Encoding: 8542 8542 445
Width: 1200
Flags: HMW
LayerCount: 2
Fore
SplineSet
99 640 m 5
 1101 640 l 5
 1101 610 l 1
 99 610 l 1
 99 640 l 5
EndSplineSet
Refer: 133 8311 N 1 0 0 1 0 300 2
Refer: 135 8312 N 1 0 0 1 0 -1010 2
EndChar

StartChar: partialdiff
Encoding: 8706 8706 446
Width: 1200
VWidth: 2310
Flags: HMW
LayerCount: 2
Fore
SplineSet
100 440 m 4
 100 172 324 10 582 10 c 4
 860 10 1045 192 1045 530 c 4
 1045 690 814 870 548 870 c 4
 340 870 100 741 100 440 c 4
376 1490 m 1
 387 1520 l 1
 684 1340 1080 1032 1080 530 c 0
 1080 190 884 -20 582 -20 c 0
 300 -20 70 160 70 440 c 0
 70 760 326 900 548 900 c 0
 830 900 1069 704 1070 530 c 1
 1055 530 l 1
 1058 957 711 1298 376 1490 c 1
EndSplineSet
EndChar

StartChar: integral
Encoding: 8747 8747 447
Width: 1200
Flags: HMW
LayerCount: 2
Fore
SplineSet
280 -390 m 5
 280 -420 l 5
 93 -420 30 -321 -45 -221 c 1
 -21 -205 l 1
 41 -285 122 -390 280 -390 c 5
574 130 m 1
 575 20 l 2
 575 -226 477 -420 280 -420 c 5
 280 -390 l 5
 458 -390 540 -203 540 20 c 2
 540 130 l 1
 574 130 l 1
839 1410 m 1
 839 1440 l 1
 1026 1440 1149 1371 1224 1301 c 1
 1202 1279 l 1
 1140 1334 1017 1410 839 1410 c 1
540 130 m 1
 539 1000 l 2
 539 1246 612 1440 839 1440 c 1
 839 1410 l 1
 651 1410 574 1223 574 1000 c 2
 574 130 l 1
 540 130 l 1
EndSplineSet
EndChar

StartChar: product
Encoding: 8719 8719 449
Width: 1200
Flags: HMW
LayerCount: 2
Fore
SplineSet
1160 1300 m 1
 1160 1270 l 1
 980 1270 l 1
 980 30 l 1
 1160 30 l 1
 1160 0 l 1
 752 0 l 1
 752 30 l 1
 946 30 l 1
 946 1270 l 1
 254 1270 l 1
 254 30 l 1
 448 30 l 5
 448 0 l 5
 40 0 l 1
 40 30 l 1
 220 30 l 1
 220 1270 l 1
 40 1270 l 1
 40 1300 l 1
 1160 1300 l 1
EndSplineSet
EndChar

StartChar: summation
Encoding: 8721 8721 451
Width: 1200
Flags: HMW
LayerCount: 2
Fore
SplineSet
504 676 m 5
 254 30 l 5
 1023 30 l 1
 1041 450 l 1
 1060 450 l 1
 1060 0 l 1
 70 0 l 1
 70 30 l 1
 220 30 l 1
 470 676 l 1
 504 676 l 5
470 676 m 1
 220 1270 l 1
 70 1270 l 1
 70 1300 l 1
 1020 1300 l 1
 1060 900 l 1
 1041 900 l 1
 986 1270 l 1
 254 1270 l 5
 504 676 l 5
 470 676 l 1
EndSplineSet
EndChar

StartChar: emptyset
Encoding: 8709 8709 453
Width: 1200
VWidth: 0
Flags: HMW
LayerCount: 2
Fore
SplineSet
600 56 m 256
 364 56 172 248 172 484 c 256
 172 720 364 912 600 912 c 256
 836 912 1028 720 1028 484 c 256
 1028 248 836 56 600 56 c 256
600 86 m 256
 820 86 993 284 993 484 c 256
 993 692 818 882 600 882 c 256
 382 882 207 692 207 484 c 256
 207 276 382 86 600 86 c 256
228 80 m 261
 204 102 l 261
 972 888 l 257
 998 866 l 257
 228 80 l 261
EndSplineSet
EndChar

StartChar: radical
Encoding: 8730 8730 454
Width: 1200
VWidth: 0
Flags: HMW
LayerCount: 2
Fore
SplineSet
539 -400 m 257
 777 1389 l 257
 753 1370 l 257
 1057 1370 l 257
 1057 1400 l 257
 741 1400 l 257
 519 -300 l 257
 549 -300 l 257
 409 468 l 257
 143 402 l 257
 153 362 l 257
 411 426 l 257
 369 458 l 261
 539 -400 l 257
EndSplineSet
EndChar

StartChar: infinity
Encoding: 8734 8734 455
Width: 1200
VWidth: 0
Flags: HMW
LayerCount: 2
Fore
SplineSet
332 311 m 256
 152 311 64 481 64 675 c 256
 64 869 152 1035 332 1035 c 256
 456 1035 558 865 602 705 c 257
 646 865 746 1035 870 1035 c 256
 1050 1035 1136 869 1136 675 c 256
 1136 481 1050 311 870 311 c 256
 746 311 626 481 602 641 c 257
 556 481 456 311 332 311 c 256
332 341 m 256
 450 341 552 541 576 675 c 257
 556 807 450 1005 332 1005 c 256
 172 1005 99 845 99 675 c 260
 99 507 172 341 332 341 c 256
870 341 m 256
 1040 341 1101 507 1101 675 c 260
 1101 845 1040 1005 870 1005 c 256
 752 1005 646 807 626 675 c 257
 626 543 752 341 870 341 c 256
EndSplineSet
EndChar

StartChar: approxequal
Encoding: 8776 8776 456
Width: 1200
VWidth: 2048
Flags: HMW
LayerCount: 2
Fore
SplineSet
208 769 m 5
 208 874.33984375 278.038085938 967 391.5 967 c 4
 491.05859375 967 556.517578125 913.358398438 614.583007812 865.850585938 c 4
 673.525390625 817.625 730.05859375 773 813.5 773 c 4
 900.048828125 773 962 844.529296875 962 941 c 5
 997 941 l 5
 997 835.66015625 926.962890625 743 813.5 743 c 4
 713.94140625 743 648.482421875 796.641601562 590.416992188 844.149414062 c 4
 531.474609375 892.375 474.94140625 937 391.5 937 c 4
 304.950195312 937 243 865.471679688 243 769 c 5
 208 769 l 5
205.5 419 m 1
 205.5 524.33984375 275.538085938 617 389 617 c 0
 488.55859375 617 554.017578125 563.358398438 612.083007812 515.850585938 c 0
 671.025390625 467.625 727.55859375 423 811 423 c 0
 897.548828125 423 959.5 494.529296875 959.5 591 c 1
 994.5 591 l 1
 994.5 485.66015625 924.462890625 393 811 393 c 0
 711.44140625 393 645.982421875 446.641601562 587.916992188 494.149414062 c 0
 528.974609375 542.375 472.44140625 587 389 587 c 0
 302.450195312 587 240.5 515.471679688 240.5 419 c 1
 205.5 419 l 1
EndSplineSet
EndChar

StartChar: notequal
Encoding: 8800 8800 457
Width: 1200
Flags: HMW
LayerCount: 2
Fore
SplineSet
926 1080 m 5
 956 1060 l 1
 254 270 l 1
 224 290 l 1
 926 1080 l 5
EndSplineSet
Refer: 75 61 N 1 0 0 1 0 0 2
EndChar

StartChar: lessequal
Encoding: 8804 8804 458
Width: 1200
Flags: HMW
LayerCount: 2
Fore
SplineSet
229 30 m 5
 971 30 l 5
 971 0 l 1
 229 0 l 1
 229 30 l 5
EndSplineSet
Refer: 78 60 N 1 0 0 1 0 0 2
EndChar

StartChar: greaterequal
Encoding: 8805 8805 459
Width: 1200
Flags: HMW
LayerCount: 2
Fore
SplineSet
229 30 m 5
 971 30 l 5
 971 0 l 1
 229 0 l 1
 229 30 l 5
EndSplineSet
Refer: 80 62 N 1 0 0 1 0 0 2
EndChar

StartChar: lozenge
Encoding: 9674 9674 460
Width: 1200
VWidth: 0
Flags: HMW
LayerCount: 2
Fore
SplineSet
612 30 m 257
 1000 712 l 257
 612 1392 l 257
 200 712 l 257
 612 30 l 257
611 104 m 261
 242 712 l 257
 611 1320 l 257
 958 712 l 257
 611 104 l 261
EndSplineSet
EndChar

StartChar: uni2010
Encoding: 8208 8208 464
Width: 1200
Flags: HMW
LayerCount: 2
Fore
SplineSet
269 690 m 5
 931 690 l 5
 931 660 l 1
 269 660 l 1
 269 690 l 5
EndSplineSet
EndChar

StartChar: uni2011
Encoding: 8209 8209 465
Width: 1200
Flags: HMW
LayerCount: 2
Fore
SplineSet
269 690 m 1
 931 690 l 1
 931 660 l 5
 269 660 l 5
 269 690 l 1
EndSplineSet
EndChar

StartChar: figuredash
Encoding: 8210 8210 466
Width: 1200
Flags: HMW
LayerCount: 2
Fore
SplineSet
189 690 m 5
 1011 690 l 5
 1011 660 l 1
 189 660 l 1
 189 690 l 5
EndSplineSet
EndChar

StartChar: endash
Encoding: 8211 8211 467
Width: 1200
Flags: HMW
LayerCount: 2
Fore
SplineSet
109 690 m 1
 1091 690 l 1
 1091 660 l 5
 109 660 l 5
 109 690 l 1
EndSplineSet
EndChar

StartChar: emdash
Encoding: 8212 8212 468
Width: 1200
Flags: HMW
LayerCount: 2
Fore
SplineSet
29 690 m 5
 1171 690 l 5
 1171 660 l 1
 29 660 l 1
 29 690 l 5
EndSplineSet
EndChar

StartChar: uni2015
Encoding: 8213 8213 469
Width: 1200
Flags: HMW
LayerCount: 2
Fore
SplineSet
-51 690 m 1
 1251 690 l 1
 1251 660 l 5
 -51 660 l 5
 -51 690 l 1
EndSplineSet
EndChar

StartChar: uni030C
Encoding: 780 780 470
Width: 1200
VWidth: 2048
Flags: HMW
AnchorPoint: "Anchor-0" -604 920 mark 0
LayerCount: 2
Fore
SplineSet
-343 1315 m 1
 -316 1290 l 1
 -606 1011 l 1
 -884 1290 l 1
 -859 1315 l 1
 -596 1041 l 1
 -616 1041 l 1
 -343 1315 l 1
EndSplineSet
EndChar

StartChar: a.sc
Encoding: 1114114 -1 471
Width: 1200
Flags: HMW
AnchorPoint: "Anchor-0" 599 1020 basechar 0
AnchorPoint: "Anchor-2" 599 0 basechar 0
AnchorPoint: "Anchor-3" 1114 -20 basechar 0
LayerCount: 2
Fore
SplineSet
221 1020 m 1
 580 1020 l 1
 580 995 l 1
 221 985 l 1
 221 1020 l 1
104 -20 m 1
 67 -20 l 1
 580 1020 l 1
 655 1020 l 1
 1133 -20 l 1
 1096 -20 l 1
 630 985 l 1
 600 985 l 1
 104 -20 l 1
239 300 m 1
 972 300 l 1
 972 270 l 1
 239 270 l 1
 239 300 l 1
EndSplineSet
EndChar

StartChar: b.sc
Encoding: 1114115 -1 472
Width: 1200
Flags: HMW
AnchorPoint: "Anchor-2" 586 0 basechar 0
AnchorPoint: "Anchor-0" 514 1020 basechar 0
LayerCount: 2
Fore
SplineSet
250 990 m 1
 80 990 l 1
 80 1020 l 1
 652 1020 l 2
 888 1020 1031 956 1031 770 c 0
 1031 634 929 510 702 510 c 1
 772 520 l 5
 958 520 1101 446 1101 280 c 0
 1101 84 979 0 712 0 c 2
 80 0 l 1
 80 30 l 1
 250 30 l 1
 250 990 l 1
284 30 m 1
 702 30 l 2
 950 30 1066 107 1066 280 c 0
 1066 423 940 500 742 500 c 2
 284 500 l 1
 284 30 l 1
692 530 m 2
 890 530 996 647 996 770 c 0
 996 933 870 990 652 990 c 2
 284 990 l 1
 284 530 l 1
 692 530 l 2
EndSplineSet
EndChar

StartChar: c.sc
Encoding: 1114116 -1 473
Width: 1200
Flags: HMW
AnchorPoint: "Anchor-3" 606 0 basechar 0
AnchorPoint: "Anchor-2" 607 0 basechar 0
AnchorPoint: "Anchor-0" 646 1020 basechar 0
LayerCount: 2
Fore
SplineSet
1068 330 m 1
 1098 320 l 1
 1028 144 886 -20 599 -20 c 0
 303 -20 100 164 100 510 c 1
 135 510 l 1
 135 177 331 10 599 10 c 0
 867 10 1008 186 1068 330 c 1
1058 690 m 1
 1008 854 857 1010 599 1010 c 0
 351 1010 135 823 135 510 c 5
 100 510 l 1
 100 856 333 1040 599 1040 c 0
 886 1040 1028 886 1088 700 c 1
 1058 690 l 1
EndSplineSet
EndChar

StartChar: d.sc
Encoding: 1114117 -1 474
Width: 1200
Flags: HMW
AnchorPoint: "Anchor-2" 513 0 basechar 0
AnchorPoint: "Anchor-0" 514 1020 basechar 0
LayerCount: 2
Fore
SplineSet
40 0 m 1
 40 30 l 1
 240 30 l 1
 240 990 l 1
 40 990 l 1
 40 1020 l 1
 612 1020 l 2
 928 1020 1101 836 1101 510 c 0
 1101 194 909 -3.63720099347e-14 612 0 c 2
 40 0 l 1
274 30 m 1
 612 30 l 6
 900 30 1066 237 1066 510 c 0
 1066 793 920 990 612 990 c 6
 274 990 l 1
 274 30 l 1
EndSplineSet
EndChar

StartChar: e.sc
Encoding: 1114118 -1 475
Width: 1200
Flags: HMW
AnchorPoint: "Anchor-3" 956 0 basechar 0
AnchorPoint: "Anchor-2" 546 0 basechar 0
AnchorPoint: "Anchor-0" 574 1020 basechar 0
LayerCount: 2
Fore
SplineSet
781 550 m 1
 781 515 l 1
 285 520 l 5
 285 30 l 1
 1028 30 l 1
 1041 330 l 1
 1060 330 l 1
 1060 0 l 1
 70 0 l 1
 70 30 l 1
 250 30 l 1
 250 990 l 1
 70 990 l 1
 70 1020 l 1
 1020 1020 l 1
 1060 690 l 1
 1041 690 l 1
 991 990 l 1
 285 990 l 1
 285 545 l 5
 781 550 l 1
EndSplineSet
EndChar

StartChar: f.sc
Encoding: 1114119 -1 476
Width: 1200
Flags: HMW
AnchorPoint: "Anchor-2" 376 0 basechar 0
AnchorPoint: "Anchor-0" 604 1020 basechar 0
LayerCount: 2
Fore
SplineSet
811 520 m 1
 811 490 l 1
 330 495 l 1
 330 30 l 1
 749 30 l 1
 749 0 l 1
 100 0 l 1
 100 30 l 1
 300 30 l 1
 300 990 l 1
 100 990 l 1
 100 1020 l 1
 1050 1020 l 1
 1090 690 l 1
 1071 690 l 1
 1021 990 l 5
 330 990 l 1
 330 515 l 1
 811 520 l 1
EndSplineSet
EndChar

StartChar: g.sc
Encoding: 1114120 -1 477
Width: 1200
Flags: HMW
AnchorPoint: "Anchor-2" 637 0 basechar 0
AnchorPoint: "Anchor-0" 601 1020 basechar 0
LayerCount: 2
Fore
SplineSet
988 460 m 1
 1008 460 l 1
 988 284 846 -20 559 -20 c 0
 343 -20 100 164 100 510 c 1
 135 510 l 1
 135 177 361 10 559 10 c 0
 827 10 978 346 988 460 c 1
1060 684 m 5
 991 869 837 1010 599 1010 c 0
 371 1010 135 813 135 510 c 1
 100 510 l 1
 100 856 353 1040 599 1040 c 0
 866 1040 1028 886 1088 700 c 1
 1060 684 l 5
617 490 m 1
 1037 490 l 1
 1037 0 l 1
 1017 0 l 1
 988 460 l 1
 617 460 l 1
 617 490 l 1
EndSplineSet
EndChar

StartChar: h.sc
Encoding: 1114121 -1 478
Width: 1200
Flags: HMW
AnchorPoint: "Anchor-2" 596 0 basechar 0
AnchorPoint: "Anchor-0" 596 1020 basechar 0
LayerCount: 2
Fore
SplineSet
946 520 m 5
 254 520 l 1
 254 30 l 1
 438 30 l 1
 438 0 l 1
 40 0 l 1
 40 30 l 1
 220 30 l 1
 220 990 l 1
 40 990 l 1
 40 1020 l 1
 438 1020 l 1
 438 990 l 1
 254 990 l 1
 254 550 l 1
 946 550 l 5
 946 990 l 5
 762 990 l 1
 762 1020 l 1
 1160 1020 l 1
 1160 990 l 1
 980 990 l 5
 980 30 l 5
 1160 30 l 1
 1160 0 l 1
 762 0 l 1
 762 30 l 1
 946 30 l 5
 946 520 l 5
EndSplineSet
EndChar

StartChar: i.sc
Encoding: 1114122 -1 479
Width: 1200
Flags: HMW
AnchorPoint: "Anchor-3" 602 0 basechar 0
AnchorPoint: "Anchor-2" 602 0 basechar 0
AnchorPoint: "Anchor-0" 586 1020 basechar 0
LayerCount: 2
Fore
SplineSet
150 0 m 1
 150 30 l 1
 583 30 l 1
 583 990 l 1
 160 990 l 1
 160 1020 l 1
 1040 1020 l 1
 1040 990 l 1
 617 990 l 5
 617 30 l 5
 1050 30 l 1
 1050 0 l 1
 150 0 l 1
EndSplineSet
EndChar

StartChar: j.sc
Encoding: 1114123 -1 480
Width: 1200
Flags: HMW
AnchorPoint: "Anchor-2" 498 0 basechar 0
AnchorPoint: "Anchor-0" 726 1020 basechar 0
LayerCount: 2
Fore
SplineSet
100 350 m 1
 130 350 l 1
 140 157 281 10 499 10 c 0
 697 10 823.547851562 177.000976562 824 430 c 6
 825 990 l 5
 431 990 l 1
 431 1020 l 1
 1120 1020 l 1
 1120 990 l 1
 860 990 l 5
 859 430 l 6
 859 174 735 -20 499 -20 c 0
 253 -20 110 144 100 350 c 1
EndSplineSet
EndChar

StartChar: k.sc
Encoding: 1114124 -1 481
Width: 1200
Flags: HMW
AnchorPoint: "Anchor-2" 661 0 basechar 0
AnchorPoint: "Anchor-0" 626 1020 basechar 0
LayerCount: 2
Fore
SplineSet
661 1020 m 1
 1140 1020 l 1
 1140 990 l 1
 992 990 l 1
 613 612 l 1
 1035 30 l 1
 1180 30 l 1
 1180 0 l 1
 711 0 l 1
 711 30 l 1
 996 30 l 1
 585 590 l 1
 295 310 l 1
 295 30 l 1
 529 30 l 1
 529 0 l 1
 70 0 l 1
 70 30 l 1
 260 30 l 1
 260 990 l 1
 70 990 l 1
 70 1020 l 1
 509 1020 l 1
 509 990 l 1
 295 990 l 1
 295 354 l 1
 947 990 l 5
 661 990 l 1
 661 1020 l 1
EndSplineSet
EndChar

StartChar: l.sc
Encoding: 1114125 -1 482
Width: 1200
Flags: HMW
AnchorPoint: "Anchor-2" 616 0 basechar 0
AnchorPoint: "Anchor-1" 789 663 basechar 0
AnchorPoint: "Anchor-0" 344 1020 basechar 0
LayerCount: 2
Fore
SplineSet
1081 530 m 1
 1100 530 l 1
 1080 0 l 1
 70 0 l 1
 70 30 l 1
 310 30 l 5
 310 990 l 5
 90 990 l 1
 90 1020 l 1
 619 1020 l 1
 619 990 l 1
 344 990 l 5
 344 30 l 5
 1045 30 l 1
 1081 530 l 1
EndSplineSet
EndChar

StartChar: m.sc
Encoding: 1114126 -1 483
Width: 1200
Flags: HMW
AnchorPoint: "Anchor-2" 606 0 basechar 0
AnchorPoint: "Anchor-0" 606 1000 basechar 0
LayerCount: 2
Fore
SplineSet
158 990 m 1
 0 990 l 1
 0 1020 l 1
 203 1020 l 1
 605 370 l 1
 595 370 l 1
 997 1020 l 1
 1200 1020 l 1
 1200 990 l 1
 1042 990 l 1
 1058 30 l 1
 1200 30 l 1
 1200 0 l 1
 831 0 l 5
 831 30 l 5
 1024 30 l 1
 1014 904 l 1
 1024 1004 l 1
 620 350 l 1
 580 350 l 1
 176 1004 l 1
 186 904 l 1
 176 30 l 1
 369 30 l 1
 369 0 l 1
 0 0 l 1
 0 30 l 1
 142 30 l 1
 158 990 l 1
EndSplineSet
EndChar

StartChar: n.sc
Encoding: 1114127 -1 484
Width: 1200
Flags: HMW
AnchorPoint: "Anchor-0" 636 1020 basechar 0
AnchorPoint: "Anchor-2" 626 0 basechar 0
LayerCount: 2
Fore
SplineSet
220 990 m 1
 62 990 l 1
 62 1020 l 1
 220 1020 l 1
 220 990 l 1
220 1020 m 1
 256 1020 l 1
 1036 43 l 1
 1036 1040 l 1
 1070 1040 l 1
 1070 -20 l 1
 1040 -20 l 1
 324 882 l 5
 240 1000 l 1
 254 847 l 1
 254 -20 l 1
 220 -20 l 1
 220 1020 l 1
EndSplineSet
EndChar

StartChar: o.sc
Encoding: 1114128 -1 485
Width: 1200
Flags: HMW
AnchorPoint: "Anchor-2" 599 0 basechar 0
AnchorPoint: "Anchor-0" 599 1020 basechar 0
LayerCount: 2
Fore
SplineSet
599 -20 m 0
 263 -20 80 204 80 510 c 0
 80 806 282 1040 599 1040 c 0
 916 1040 1119 806 1119 510 c 0
 1119 204 935 -20 599 -20 c 0
599 1010 m 0
 311 1010 115 793 115 510 c 4
 115 217 311 10 599 10 c 0
 887 10 1084 217 1084 510 c 4
 1084 793 887 1010 599 1010 c 0
EndSplineSet
EndChar

StartChar: p.sc
Encoding: 1114129 -1 486
Width: 1200
Flags: HMW
AnchorPoint: "Anchor-2" 362 0 basechar 0
AnchorPoint: "Anchor-0" 566 1020 basechar 0
LayerCount: 2
Fore
SplineSet
100 0 m 1
 100 30 l 1
 300 30 l 5
 300 990 l 5
 100 990 l 1
 100 1020 l 1
 712 1020 l 2
 979 1020 1121 916 1121 680 c 0
 1121 454 960 350 712 350 c 2
 334 350 l 5
 334 30 l 5
 669 30 l 1
 669 0 l 1
 100 0 l 1
334 380 m 5
 712 380 l 2
 941 380 1086 477 1086 680 c 0
 1086 893 961 990 712 990 c 2
 334 990 l 5
 334 380 l 5
EndSplineSet
EndChar

StartChar: q.sc
Encoding: 1114130 -1 487
Width: 1200
Flags: HMW
AnchorPoint: "Anchor-0" 599 1020 basechar 0
LayerCount: 2
Fore
SplineSet
590 340 m 1
 610 340 l 1
 620 0 l 1
 625 -300 l 1
 575 -300 l 5
 580 0 l 1
 590 340 l 1
599 -20 m 0
 263 -20 80 204 80 510 c 0
 80 806 282 1040 599 1040 c 0
 916 1040 1119 806 1119 510 c 0
 1119 204 935 -20 599 -20 c 0
599 1010 m 0
 311 1010 115 783 115 510 c 0
 115 217 301 10 599 10 c 0
 897 10 1084 217 1084 510 c 0
 1084 783 897 1010 599 1010 c 0
EndSplineSet
EndChar

StartChar: r.sc
Encoding: 1114131 -1 488
Width: 1200
Flags: HMW
AnchorPoint: "Anchor-2" 586 0 basechar 0
AnchorPoint: "Anchor-0" 606 1020 basechar 0
LayerCount: 2
Fore
SplineSet
672 485 m 1
 803.96875 435.736328125 841.067103346 310.405010317 871.280273438 223 c 0
 896.165039062 151.009765625 926.401367188 -10 1021 -10 c 0
 1124 -10 1160 80 1180 123 c 1
 1201 110 l 1
 1171 34 1127 -40 1021 -40 c 0
 914.129882812 -40 885.447265625 73.802734375 845.280273438 208 c 4
 811.4453125 321.041015625 757.549804688 435.928710938 662 465 c 1
 672 485 l 1
692 465 m 1
 692 460 l 1
 304 460 l 1
 304 30 l 1
 589 30 l 1
 589 0 l 1
 100 0 l 1
 100 30 l 1
 270 30 l 1
 270 990 l 1
 100 990 l 1
 100 1020 l 1
 692 1020 l 2
 959 1020 1091 946 1091 730 c 0
 1091 524 940 465 692 465 c 1
304 490 m 1
 692 490 l 2
 921 490 1061 547 1061 730 c 0
 1061 923 941 990 692 990 c 2
 304 990 l 1
 304 490 l 1
EndSplineSet
EndChar

StartChar: s.sc
Encoding: 1114132 -1 489
Width: 1200
Flags: HMW
AnchorPoint: "Anchor-3" 636 0 basechar 0
AnchorPoint: "Anchor-2" 635 0 basechar 0
AnchorPoint: "Anchor-0" 606 1020 basechar 0
LayerCount: 2
Fore
SplineSet
1053 864 m 1
 1032 840 l 1
 952 913 811 1010 583 1010 c 0
 402 1010 214 939 214 795 c 0
 214 601 445 579 624 539 c 0
 859.635742188 486.34375 1089 419 1089 231 c 0
 1089 61 892 -34 620 -34 c 0
 383 -34 190 72 90 176 c 1
 110 201 l 1
 210 94 408 -4 620 -4 c 0
 862 -4 1054 82 1054 231 c 0
 1054 387 840.884765625 456.567382812 614 506 c 0
 432.923828125 545.452148438 179 569 179 795 c 0
 179 972 377 1040 583 1040 c 0
 829 1040 981 934 1053 864 c 1
EndSplineSet
EndChar

StartChar: t.sc
Encoding: 1114133 -1 490
Width: 1200
Flags: HMW
AnchorPoint: "Anchor-3" 601 0 basechar 0
AnchorPoint: "Anchor-0" 599 1020 basechar 0
AnchorPoint: "Anchor-2" 599 0 basechar 0
LayerCount: 2
Fore
SplineSet
89 560 m 1
 70 560 l 1
 70 1020 l 1
 1130 1020 l 1
 1130 560 l 1
 1111 560 l 1
 1095 990 l 1
 612 990 l 5
 612 30 l 5
 909 30 l 1
 909 0 l 1
 280 0 l 1
 280 30 l 1
 577 30 l 1
 577 990 l 1
 105 990 l 1
 89 560 l 1
EndSplineSet
EndChar

StartChar: u.sc
Encoding: 1114134 -1 491
Width: 1200
Flags: HMW
AnchorPoint: "Anchor-0" 599 1020 basechar 0
AnchorPoint: "Anchor-2" 599 0 basechar 0
AnchorPoint: "Anchor-3" 791 80 basechar 0
LayerCount: 2
Fore
SplineSet
170 430 m 2
 170 990 l 1
 40 990 l 1
 40 1020 l 1
 499 1020 l 1
 499 990 l 1
 205 990 l 1
 205 430 l 6
 205 197 341 10 599 10 c 4
 857 10 993.583930431 197.001041182 994 430 c 6
 995 990 l 1
 701 990 l 1
 701 1020 l 1
 1160 1020 l 1
 1160 990 l 1
 1030 990 l 1
 1029 430 l 2
 1029 174 885 -20 599 -20 c 0
 313 -20 170 174 170 430 c 2
EndSplineSet
EndChar

StartChar: v.sc
Encoding: 1114135 -1 492
Width: 1200
Flags: HMW
AnchorPoint: "Anchor-0" 599 1020 basechar 0
AnchorPoint: "Anchor-2" 599 0 basechar 0
LayerCount: 2
Fore
SplineSet
976 990 m 1
 751 990 l 5
 751 1020 l 5
 1170 1020 l 1
 1170 990 l 1
 1013 990 l 1
 650 -20 l 1
 550 -20 l 1
 187 990 l 1
 30 990 l 1
 30 1020 l 1
 449 1020 l 1
 449 990 l 1
 223 990 l 1
 580 10 l 1
 620 10 l 1
 976 990 l 1
EndSplineSet
EndChar

StartChar: w.sc
Encoding: 1114136 -1 493
Width: 1200
Flags: HMW
AnchorPoint: "Anchor-0" 599 1020 basechar 0
AnchorPoint: "Anchor-2" 599 0 basechar 0
LayerCount: 2
Fore
SplineSet
153 990 m 1
 264 226 l 1
 282 30 l 1
 312 30 l 1
 565 720 l 1
 635 720 l 1
 888 30 l 1
 918 30 l 1
 936 226 l 5
 1047 990 l 5
 731 990 l 1
 731 1020 l 1
 1190 1020 l 1
 1190 990 l 1
 1080 990 l 1
 935 0 l 1
 862 0 l 1
 610 690 l 1
 590 690 l 1
 338 0 l 1
 265 0 l 1
 120 990 l 1
 10 990 l 1
 10 1020 l 1
 459 1020 l 1
 459 990 l 1
 153 990 l 1
EndSplineSet
EndChar

StartChar: x.sc
Encoding: 1114137 -1 494
Width: 1200
Flags: HMW
AnchorPoint: "Anchor-0" 599 1020 basechar 0
AnchorPoint: "Anchor-2" 599 0 basechar 0
LayerCount: 2
Fore
SplineSet
80 1020 m 1
 529 1020 l 1
 529 990 l 1
 269 990 l 1
 600 552 l 1
 931 990 l 1
 671 990 l 1
 671 1020 l 1
 1120 1020 l 1
 1120 990 l 1
 971 990 l 1
 625 525 l 1
 1011 30 l 1
 1160 30 l 1
 1160 0 l 1
 691 0 l 1
 691 30 l 1
 971 30 l 1
 600 501 l 5
 229 30 l 1
 509 30 l 1
 509 0 l 1
 40 0 l 1
 40 30 l 1
 189 30 l 1
 575 524 l 1
 229 990 l 1
 80 990 l 1
 80 1020 l 1
EndSplineSet
EndChar

StartChar: y.sc
Encoding: 1114138 -1 495
Width: 1200
Flags: HMW
AnchorPoint: "Anchor-0" 599 1020 basechar 0
AnchorPoint: "Anchor-2" 599 0 basechar 0
LayerCount: 2
Fore
SplineSet
320 0 m 1
 320 30 l 1
 582 30 l 1
 582 380 l 1
 204 990 l 1
 30 990 l 1
 30 1020 l 1
 448 1020 l 5
 448 990 l 5
 244 990 l 1
 604 410 l 1
 595 410 l 1
 956 990 l 1
 770 990 l 1
 770 1020 l 1
 1170 1020 l 1
 1170 990 l 1
 996 990 l 1
 617 380 l 1
 617 30 l 1
 869 30 l 1
 869 0 l 1
 320 0 l 1
EndSplineSet
EndChar

StartChar: z.sc
Encoding: 1114139 -1 496
Width: 1200
Flags: HMW
AnchorPoint: "Anchor-0" 609 1020 basechar 0
AnchorPoint: "Anchor-2" 609 0 basechar 0
LayerCount: 2
Fore
SplineSet
1031 460 m 1
 1050 460 l 1
 1010 0 l 1
 140 0 l 1
 130 20 l 1
 937 890 l 1
 194 890 l 1
 179 520 l 1
 160 520 l 1
 160 920 l 1
 980 920 l 1
 990 900 l 1
 183 30 l 5
 983 30 l 1
 1031 460 l 1
EndSplineSet
EndChar

StartChar: ae.sc
Encoding: 1114146 -1 503
Width: 1200
Flags: HMW
LayerCount: 2
Fore
SplineSet
131 1020 m 1
 480 1020 l 1
 480 995 l 1
 131 985 l 1
 131 1020 l 1
7 -20 m 1
 -33 -20 l 1
 480 1020 l 1
 694 1020 l 1
 504 992 l 1
 7 -20 l 1
189 400 m 1
 612 400 l 1
 612 370 l 1
 189 370 l 1
 189 400 l 1
1011 553 m 1
 1011 520 l 1
 625 525 l 1
 625 30 l 1
 1108 30 l 1
 1121 350 l 5
 1140 350 l 5
 1140 0 l 1
 450 0 l 1
 450 30 l 1
 590 30 l 1
 590 1020 l 1
 1100 1020 l 1
 1140 720 l 1
 1121 720 l 1
 1071 990 l 1
 625 990 l 1
 625 548 l 1
 1011 553 l 1
EndSplineSet
EndChar

StartChar: oslash.sc
Encoding: 1114163 -1 520
Width: 1200
VWidth: 0
Flags: HMW
LayerCount: 2
Fore
SplineSet
816 1111 m 5
 846 1091 l 1
 311 -52 l 1
 281 -32 l 1
 816 1111 l 5
EndSplineSet
Refer: 485 -1 N 1 0 0 1 0.35385 0 2
EndChar

StartChar: hbar.sc
Encoding: 1114188 -1 545
Width: 1200
Flags: HMW
LayerCount: 2
Fore
SplineSet
935 460 m 1
 265 460 l 1
 265 30 l 1
 488 30 l 1
 488 0 l 1
 40 0 l 1
 40 30 l 1
 230 30 l 1
 230 990 l 1
 40 990 l 1
 40 1020 l 1
 488 1020 l 1
 488 990 l 1
 265 990 l 1
 265 490 l 1
 935 490 l 1
 935 990 l 1
 712 990 l 5
 712 1020 l 5
 1160 1020 l 1
 1160 990 l 1
 970 990 l 1
 970 30 l 1
 1160 30 l 1
 1160 0 l 1
 712 0 l 5
 712 30 l 5
 935 30 l 1
 935 460 l 1
39 790 m 1
 1161 790 l 1
 1161 760 l 1
 39 760 l 1
 39 790 l 1
EndSplineSet
EndChar

StartChar: ij.sc
Encoding: 1114194 -1 551
Width: 1200
Flags: HMW
LayerCount: 2
Fore
SplineSet
90 0 m 1
 90 30 l 1
 315 30 l 1
 315 990 l 5
 100 990 l 5
 100 1020 l 5
 560 1020 l 5
 560 990 l 5
 345 990 l 5
 345 30 l 1
 570 30 l 1
 570 0 l 1
 90 0 l 1
687 10 m 1
 925 10 1008.7107147 187.000344387 1009 430 c 2
 1010 990 l 5
 681 990 l 5
 681 1020 l 5
 1040 1020 l 5
 1039 430 l 2
 1039 174 955 -20 689 -20 c 1
 687 10 l 1
EndSplineSet
EndChar

StartChar: lcaron.sc
Encoding: 1114199 -1 556
Width: 1200
VWidth: 0
Flags: HMW
LayerCount: 2
Fore
SplineSet
747 450 m 1
 787 1060 l 1
 837 1060 l 5
 767 450 l 1
 747 450 l 1
EndSplineSet
Refer: 482 -1 N 1 0 0 1 0 0 2
EndChar

StartChar: lslash.sc
Encoding: 1114201 -1 558
Width: 1200
VWidth: 0
Flags: HMW
LayerCount: 2
Fore
SplineSet
50 468 m 261
 39 497 l 257
 730 753 l 257
 741 724 l 261
 50 468 l 261
EndSplineSet
Refer: 482 -1 N 1 0 0 1 0 0 2
EndChar

StartChar: eng.sc
Encoding: 1114205 -1 562
Width: 1200
Flags: HMW
LayerCount: 2
Fore
SplineSet
988 0 m 1
 988 -246 941 -440 634 -440 c 1
 634 -405 l 1
 922 -405 953 -223 953 0 c 1
 988 0 l 1
250 990 m 5
 40 990 l 5
 40 1020 l 5
 250 1020 l 5
 250 990 l 5
988 670 m 6
 988 0 l 1
 953 0 l 1
 953 680 l 6
 953 903 846 1010 668 1010 c 4
 447 1010 285 823 285 590 c 6
 285 0 l 1
 250 0 l 1
 250 1020 l 5
 275 1020 l 5
 285 700 l 5
 265 600 l 5
 265 826 401 1040 678 1040 c 4
 855 1040 988 936 988 670 c 6
EndSplineSet
EndChar

StartChar: oe.sc
Encoding: 1114209 -1 566
Width: 1200
Flags: HMW
LayerCount: 2
Fore
SplineSet
590 1020 m 1
 590 990 l 1
 312 990 130 863 130 510 c 0
 130 167 292 30 590 30 c 1
 590 0 l 1
 274 0 100 154 100 510 c 0
 100 876 293 1020 590 1020 c 1
1011 555 m 1
 1011 520 l 5
 625 525 l 1
 625 30 l 1
 1108 30 l 1
 1121 280 l 1
 1140 280 l 1
 1140 0 l 1
 590 0 l 1
 590 1020 l 1
 1100 1020 l 1
 1140 740 l 1
 1121 740 l 1
 1061 990 l 1
 625 990 l 1
 625 545 l 1
 1011 555 l 1
EndSplineSet
EndChar

StartChar: tbar.sc
Encoding: 1114219 -1 576
Width: 1200
VWidth: 0
Flags: HMW
LayerCount: 2
Fore
SplineSet
285 537 m 1
 905 537 l 1
 905 507 l 5
 285 507 l 5
 285 537 l 1
EndSplineSet
Refer: 490 -1 N 1 0 0 1 0 0 2
EndChar

StartChar: zero.alt
Encoding: 1114235 -1 592
Width: 1200
Flags: W
HStem: -20 30<480.729 717.331> 1290 30<487.026 711.034>
VStem: 120 35<427.279 853.169> 1044 35<427.279 853.169>
LayerCount: 2
Fore
SplineSet
599 -20 m 0
 303 -20 120 154 120 650 c 0
 120 1116 322 1320 599 1320 c 0
 876 1320 1079 1116 1079 650 c 0
 1079 154 895 -20 599 -20 c 0
599 1290 m 4
 351 1290 155 1093 155 650 c 0
 155 177 331 10 599 10 c 4
 867 10 1044 177 1044 650 c 0
 1044 1093 847 1290 599 1290 c 4
EndSplineSet
EndChar

StartChar: one.alt
Encoding: 1114236 -1 593
Width: 1200
Flags: W
HStem: 0 30<180 637 671 1080> 1270 30<190 637>
VStem: 637 34<30 1268>
LayerCount: 2
Fore
SplineSet
180 0 m 1
 180 30 l 1
 637 30 l 5
 637 1268 l 5
 190 1270 l 1
 190 1300 l 1
 671 1300 l 5
 671 30 l 5
 1080 30 l 1
 1080 0 l 1
 180 0 l 1
EndSplineSet
EndChar

StartChar: germandbls.sc
Encoding: 1114237 -1 594
Width: 1200
Flags: HMW
LayerCount: 2
Fore
SplineSet
70 0 m 1
 70 30 l 1
 230 30 l 1
 229 600 l 2
 229 846 332 1040 639 1040 c 1
 639 1010 l 1
 351 1010 265 803 265 600 c 2
 265 30 l 1
 470 30 l 1
 470 0 l 1
 70 0 l 1
639 1040 m 1
 867 1040 1007 931 1087 799 c 1
 644 552 l 1
 726.508789062 507.587890625 1119 457.982421875 1119 256 c 0
 1119 111 999 -19 781 -19 c 0
 727 -19 646 -9 580 23 c 1
 594 56 l 5
 645 23 743 11 781 11 c 0
 981 11 1089 135 1089 256 c 0
 1089 432.649414062 712.111328125 479.18359375 563 547 c 1
 1037 808 l 1
 977 906 822 1010 639 1010 c 1
 639 1040 l 1
EndSplineSet
EndChar

StartChar: uni0311
Encoding: 785 785 595
Width: 1200
VWidth: 0
Flags: W
HStem: 1310 30<-698.706 -509.094>
VStem: -850 30<1070 1189.22> -388 30<1070 1189.22>
AnchorPoint: "Anchor-0" -604 920 mark 0
LayerCount: 2
Fore
SplineSet
-358 1060 m 257
 -388 1070 l 257
 -378 1202 -434 1310 -604 1310 c 256
 -773 1310 -830 1202 -820 1070 c 257
 -850 1060 l 257
 -860 1228 -794 1340 -604 1340 c 256
 -414 1340 -348 1228 -358 1060 c 257
EndSplineSet
EndChar
